<svg xmlns="http://www.w3.org/2000/svg" width="39.196" height="13.388" viewBox="0 0 39.196 13.388">
  <g id="_006hand_114150" data-name="006hand_114150" transform="translate(0 -102.65)">
    <g id="Grupo_284" data-name="Grupo 284" transform="translate(0 102.65)">
      <g id="Grupo_283" data-name="Grupo 283" transform="translate(0 0)">
        <path id="Trazado_75" data-name="Trazado 75" d="M38.766,290.1a3.179,3.179,0,0,0-4.287-1.214l-5.418,2.858-.008,0a5.331,5.331,0,0,1-2.231.634,2.953,2.953,0,0,0-2.6-4.363h-4.4a9.958,9.958,0,0,0-7.275,2.786v-.957a1.636,1.636,0,0,0-1.634-1.634H.769a.768.768,0,0,0-.769.768v11.647a.769.769,0,0,0,.769.769l10.148.01a1.636,1.636,0,0,0,1.634-1.634v-.763l3.122.814a9.861,9.861,0,0,0,2.489.319h7.065a6.868,6.868,0,0,0,3.257-.824l9.039-4.812a3.2,3.2,0,0,0,1.245-4.408ZM6.5,299.863H1.537v-10.11H6.5Zm4.512-6.76a.768.768,0,0,0,0,.122v6.55a.1.1,0,0,1-.1.1H8.038v-10.12h2.878a.1.1,0,0,1,.1.1Zm26.582-.951a1.643,1.643,0,0,1-.8,1l-9.038,4.812a5.33,5.33,0,0,1-2.529.641H18.161a8.324,8.324,0,0,1-2.1-.27l-3.51-.916V293.35c1.356-2.412,4-3.791,7.275-3.791h4.4a1.417,1.417,0,0,1,0,2.834H18.978a.769.769,0,1,0,0,1.537h7.543a6.871,6.871,0,0,0,3.261-.826l5.418-2.858.008,0a1.659,1.659,0,0,1,2.387,1.91Z" transform="translate(0 -288.022)" fill="#fbfbfb"/>
      </g>
    </g>
  </g>
</svg>
