<svg xmlns="http://www.w3.org/2000/svg" width="22.907" height="16.898" viewBox="0 0 22.907 16.898">
  <g id="users-group-customers-clients" transform="translate(-15.576 -22.97)">
    <path id="Trazado_76" data-name="Trazado 76" d="M37.1,22.97a4.542,4.542,0,0,0-3.649,7.258A3.913,3.913,0,0,0,31.676,33.4v6.467h1.266V33.4a2.719,2.719,0,0,1,1.416-2.259,4.517,4.517,0,0,0,5.519-.022A2.727,2.727,0,0,1,41.329,33.4v6.467h1.266V33.4a3.912,3.912,0,0,0-1.821-3.2A4.542,4.542,0,0,0,37.1,22.97Zm0,7.836a3.285,3.285,0,1,1,3.285-3.285A3.288,3.288,0,0,1,37.1,30.806Z" transform="translate(-10.105 0)" fill="#fbfbfb"/>
    <path id="Trazado_77" data-name="Trazado 77" d="M16.842,37.329A1.317,1.317,0,0,1,17.43,36.3a3.028,3.028,0,1,0-.883-.923,2.545,2.545,0,0,0-.971,1.953v3.755h1.266Zm2.223-5.2a1.7,1.7,0,1,1-1.7,1.7A1.7,1.7,0,0,1,19.064,32.128Z" transform="translate(0 -4.953)" fill="#fbfbfb"/>
    <path id="Trazado_78" data-name="Trazado 78" d="M65.156,35.356a2.932,2.932,0,0,0,.436-1.527,2.969,2.969,0,1,0-1.31,2.459,1.318,1.318,0,0,1,.6,1.042v3.755h1.266V37.33A2.542,2.542,0,0,0,65.156,35.356Zm-2.53.173a1.7,1.7,0,1,1,1.7-1.7A1.7,1.7,0,0,1,62.626,35.529Z" transform="translate(-27.669 -4.953)" fill="#fbfbfb"/>
  </g>
</svg>
