<svg xmlns="http://www.w3.org/2000/svg" xmlns:xlink="http://www.w3.org/1999/xlink" width="25" height="14" viewBox="0 0 25 14">
  <defs>
    <clipPath id="clip-path">
      <rect id="Rectángulo_165" data-name="Rectángulo 165" width="25" height="14" transform="translate(-1065 -6120)" fill="#fff" stroke="#707070" stroke-width="1"/>
    </clipPath>
  </defs>
  <g id="Enmascarar_grupo_39" data-name="Enmascarar grupo 39" transform="translate(1065 6120)" clip-path="url(#clip-path)">
    <g id="coffee-cup_icon-icons.com_64801" transform="translate(-1070 -6132)">
      <g id="Grupo_285" data-name="Grupo 285">
        <path id="Trazado_79" data-name="Trazado 79" d="M11.153,25h7.695a10.285,10.285,0,0,0,3.545-3H26a4,4,0,1,0-1.007-7.856c0-.075.007-.147.007-.221A.856.856,0,0,0,24.23,13H5.769A.856.856,0,0,0,5,13.923C5,18.914,7.54,23.191,11.153,25Zm13.623-8.571A1.98,1.98,0,0,1,26,16a2,2,0,0,1,0,4H23.621A13.442,13.442,0,0,0,24.776,16.429ZM23,15A8,8,0,0,1,7,15ZM20,8c0,.725-.357.862-.587,1.486a.793.793,0,0,0-.1.339A1,1,0,0,0,20.4,11c.441,0,.625-.453.8-.75A4.33,4.33,0,0,0,22,8a4.37,4.37,0,0,0-.832-2.562C20.69,4.6,20,4.371,20,3c0-.73.435-.96.662-1.6a.826.826,0,0,0,.092-.332A1.072,1.072,0,0,0,19.6,0c-.441,0-.6.383-.8.75A4.738,4.738,0,0,0,18,3a3.447,3.447,0,0,0,.852,2.438A4.361,4.361,0,0,1,20,8ZM15,8c0,.725-.357.862-.587,1.486a.779.779,0,0,0-.1.339A1,1,0,0,0,15.4,11c.441,0,.625-.453.8-.75A4.33,4.33,0,0,0,17,8a4.37,4.37,0,0,0-.832-2.562C15.69,4.6,15,4.371,15,3c0-.73.435-.96.662-1.6a.826.826,0,0,0,.092-.332A1.072,1.072,0,0,0,14.6,0c-.441,0-.6.383-.8.75A4.738,4.738,0,0,0,13,3a3.447,3.447,0,0,0,.852,2.438A4.367,4.367,0,0,1,15,8ZM10,8c0,.725-.358.862-.587,1.486a.783.783,0,0,0-.1.339A1,1,0,0,0,10.4,11c.442,0,.625-.453.8-.75A4.33,4.33,0,0,0,12,8a4.37,4.37,0,0,0-.833-2.562C10.69,4.6,10,4.371,10,3c0-.73.435-.96.663-1.6a.841.841,0,0,0,.091-.332A1.072,1.072,0,0,0,9.6,0c-.442,0-.6.383-.8.75A4.738,4.738,0,0,0,8,3a3.447,3.447,0,0,0,.852,2.438A4.367,4.367,0,0,1,10,8Z" fill="#fbfbfb" fill-rule="evenodd"/>
      </g>
    </g>
  </g>
</svg>
