<svg xmlns="http://www.w3.org/2000/svg" width="317.592" height="91.188" viewBox="0 0 317.592 91.188">
  <g id="Grupo_287" data-name="Grupo 287" transform="translate(-172.408 -1696.406)">
    <g id="coffee-bean" transform="matrix(0.899, 0.438, -0.438, 0.899, 273.113, 1734.712)" opacity="0.77">
      <path id="Trazado_69" data-name="Trazado 69" d="M34.659,2.3A13.116,13.116,0,0,0,26.922,0C20.954,0,14.2,3.046,8.608,8.622.068,17.162-2.463,28.686,2.578,35.085a.828.828,0,0,0,1.214.082c.185-.165.391-.35.617-.576.967-.885,2.325-2.14,3.972-3.663.8-.761,1.687-1.584,2.613-2.449.473-.432.926-.885,1.4-1.358.226-.226.473-.473.72-.7s.453-.473.7-.7c.123-.123.226-.247.35-.35.123-.123.247-.247.37-.391.123-.123.226-.247.35-.37,0-.021.021-.021.021-.041.082-.1.185-.226.268-.329.1-.123.206-.247.309-.35.1-.123.185-.247.288-.37l.268-.35c.021-.021.021-.021.021-.041l.247-.37a14.049,14.049,0,0,0,.905-1.646c.268-.6.514-1.214.782-1.893a19.058,19.058,0,0,1,2.222-4.3c.123-.165.247-.35.37-.514.165-.226.412-.473.576-.7a.546.546,0,0,0,.1-.123l.556-.556.391-.391.021-.021.062-.062h0l.021-.021.062-.041.1-.1.206-.185c.288-.247.556-.494.823-.72.556-.473,1.111-.905,1.646-1.338.535-.412,1.07-.823,1.605-1.214,1.029-.782,2.037-1.482,2.984-2.12.926-.638,1.79-1.194,2.572-1.687s1.44-.905,2.017-1.255c.1-.062.206-.123.288-.165A.837.837,0,0,0,34.659,2.3ZM31.428,3.7c0,.021-.021.021,0,0L31,3.992c-.658.432-1.4.905-2.181,1.44l-.082.062c-.905.617-1.914,1.317-2.943,2.1-.535.391-1.049.8-1.626,1.235l-.021.021-.123.1c-.494.391-1.029.823-1.543,1.255-.268.226-.514.453-.761.658l-.1.1-.206.185-.1.082-.021.021h0l-.062.062a.349.349,0,0,0-.123.123l-.021.021-.144.165-.226.226-.206.206-.329.329a.9.9,0,0,0-.123.144l-.041.041-.082.082a.43.43,0,0,0-.082.123,1.5,1.5,0,0,1-.185.206,4.374,4.374,0,0,0-.37.453l-.288.37-.082.123A20.278,20.278,0,0,0,16.489,18.6v.021c-.268.679-.514,1.276-.741,1.811a11.365,11.365,0,0,1-.782,1.44v.021l-.226.35-.247.329c-.041.062-.082.1-.123.165s-.082.1-.1.144l-.247.268-.062.062h0l-.206.247-.041.062-.37.35-.35.37h0l-.082.082-.268.268-.309.309c-.123.123-.247.268-.37.37h0l-.556.535-.144.144c-.123.123-.247.226-.35.35-.35.35-.679.658-1.029.988L7.99,29.056l-.72.679-3.91,3.6C-.447,27.451,2.249,17.327,9.78,9.8c5.083-5.083,11.585-8.149,17.141-8.149a12.383,12.383,0,0,1,5.7,1.317C32.252,3.19,31.861,3.437,31.428,3.7Z" transform="translate(0 0)" fill="#fff"/>
      <path id="Trazado_70" data-name="Trazado 70" d="M32.318,1.42h0m-.679.638c3.807,5.906,1.111,16.03-6.42,23.541-5.083,5.083-11.5,8.128-17.162,8.128A12.156,12.156,0,0,1,2.336,32.41c1.482-.926,3.292-2.058,3.848-2.449l.226-.144c.844-.6,1.811-1.255,2.8-2l1.235-.926.391-.288.021-.021.165-.144c.494-.391.988-.8,1.523-1.255l.185-.165.226-.206.021-.021.185-.165.206-.185.185-.165.206-.185h0l.062-.062.021-.021.062-.062.1-.1.041-.041.206-.206.247-.247.185-.185.021-.021c.123-.123.226-.247.329-.37a2.933,2.933,0,0,1,.226-.247l.082-.082.082-.1a.43.43,0,0,0,.082-.123L16,21.545a10.937,10.937,0,0,0,.638-.947c.041-.062.082-.144.123-.206.123-.185.206-.35.288-.494a.516.516,0,0,1,.082-.144c0-.021.021-.021.021-.041.021-.062.062-.1.082-.165.062-.123.144-.268.226-.432.391-.761.7-1.523.967-2.181l.021-.062v-.021a20.692,20.692,0,0,1,1.523-3.292l.247-.391.021-.021c0-.021.041-.062.062-.1a1.141,1.141,0,0,1,.123-.165l.206-.288h0l.37-.412.288-.329.082-.082.165-.185.1-.123c.185-.206.37-.391.556-.576l.021-.021C23.1,9.96,24,9.1,24.992,8.149L26.206,7l.123-.123h.021c.268-.268.556-.514.823-.761.144-.144.288-.268.432-.412l2.243-2.058,1.79-1.584M31.762,0a.8.8,0,0,0-.556.226c-.185.165-.391.35-.617.576-.473.453-1.07.988-1.729,1.605s-1.42,1.317-2.243,2.058c-.412.37-.844.761-1.276,1.194-.432.412-.885.823-1.358,1.255-.926.864-1.873,1.79-2.819,2.757-.247.247-.473.494-.7.741L20.3,10.6l-.082.1-.041.041-.021.021h0l-.021.021s0-.021.041-.041l-.021.021c-.226.268-.453.514-.679.782-.021.021-.041.041-.041.062l-.226.329c-.082.123-.165.226-.247.35l-.247.391a20.03,20.03,0,0,0-1.667,3.581c-.288.679-.576,1.42-.947,2.161-.082.185-.206.37-.288.556-.1.185-.185.37-.309.556-.226.35-.453.72-.7,1.049-.165.226-.35.453-.514.679-.021.041-.062.062-.082.1-.206.206-.391.453-.6.658l-.432.432-.206.206-.1.1-.062.062-.041.041-.021.021-.021.021c-.144.123-.268.247-.391.35-.123.123-.268.226-.391.35-.144.123-.288.247-.412.35-.576.494-1.111.926-1.646,1.358-.556.412-1.07.823-1.605,1.214-1.029.782-2.037,1.482-2.984,2.12-.72.494-3.642,2.325-5.083,3.231-.432.268-.144,1.07.226,1.317a13.221,13.221,0,0,0,7.676,2.243c5.865,0,12.738-3,18.335-8.6C34.993,18.294,37.524,6.77,32.483.37a.991.991,0,0,0-.72-.37Z" transform="translate(4.481 4.116)" fill="#fff"/>
    </g>
    <g id="coffee-bean-2" data-name="coffee-bean" transform="translate(450.458 1733.713)">
      <path id="Trazado_69-2" data-name="Trazado 69" d="M66.83,34.3A13.116,13.116,0,0,0,59.093,32c-5.968,0-12.717,3.046-18.314,8.622-8.54,8.54-11.071,20.063-6.029,26.463a.828.828,0,0,0,1.214.082c.185-.165.391-.35.617-.576.967-.885,2.325-2.14,3.972-3.663.8-.761,1.687-1.584,2.613-2.449.473-.432.926-.885,1.4-1.358.226-.226.473-.473.72-.7s.453-.473.7-.7c.123-.123.226-.247.35-.35.123-.123.247-.247.37-.391.123-.123.226-.247.35-.37,0-.021.021-.021.021-.041.082-.1.185-.226.268-.329.1-.123.206-.247.309-.35.1-.123.185-.247.288-.37l.268-.35c.021-.021.021-.021.021-.041l.247-.37a14.049,14.049,0,0,0,.905-1.646c.268-.6.514-1.214.782-1.893a19.058,19.058,0,0,1,2.222-4.3c.123-.165.247-.35.37-.514.165-.226.412-.473.576-.7a.546.546,0,0,0,.1-.123l.556-.556.391-.391.021-.021.062-.062h0l.021-.021.062-.041.1-.1.206-.185c.288-.247.556-.494.823-.72.556-.473,1.111-.905,1.646-1.338.535-.412,1.07-.823,1.605-1.214,1.029-.782,2.037-1.482,2.984-2.12.926-.638,1.79-1.194,2.572-1.687s1.44-.905,2.017-1.255c.1-.062.206-.123.288-.165A.837.837,0,0,0,66.83,34.3ZM63.6,35.7c0,.021-.021.021,0,0l-.432.288c-.658.432-1.4.905-2.181,1.44l-.082.062c-.905.617-1.914,1.317-2.943,2.1-.535.391-1.049.8-1.626,1.235l-.021.021-.123.1c-.494.391-1.029.823-1.543,1.255-.268.226-.514.453-.761.658l-.1.1-.206.185-.1.082-.021.021h0l-.062.062a.349.349,0,0,0-.123.123l-.021.021-.144.165-.226.226-.206.206-.329.329a.9.9,0,0,0-.123.144l-.041.041-.082.082a.43.43,0,0,0-.082.123,1.5,1.5,0,0,1-.185.206,4.374,4.374,0,0,0-.37.453l-.288.37-.082.123A20.278,20.278,0,0,0,48.66,50.6v.021c-.268.679-.514,1.276-.741,1.811a11.365,11.365,0,0,1-.782,1.44v.021l-.226.35-.247.329c-.041.062-.082.1-.123.165s-.082.1-.1.144l-.247.268-.062.062h0l-.206.247-.041.062-.37.35-.35.37h0l-.082.082-.268.268L44.5,56.9c-.123.123-.247.268-.37.37h0l-.556.535-.144.144c-.123.123-.247.226-.35.35-.35.35-.679.658-1.029.988l-1.893,1.77-.72.679-3.91,3.6c-3.807-5.885-1.111-16.01,6.42-23.541,5.083-5.083,11.585-8.149,17.141-8.149a12.383,12.383,0,0,1,5.7,1.317C64.422,35.19,64.031,35.437,63.6,35.7Z" transform="translate(-32.171 -32)" fill="rgba(255,255,255,0.32)"/>
      <path id="Trazado_70-2" data-name="Trazado 70" d="M86.266,53.42h0m-.679.638c3.807,5.906,1.111,16.03-6.42,23.541-5.083,5.083-11.5,8.128-17.162,8.128a12.156,12.156,0,0,1-5.721-1.317c1.482-.926,3.292-2.058,3.848-2.449l.226-.144c.844-.6,1.811-1.255,2.8-2l1.235-.926.391-.288.021-.021.165-.144c.494-.391.988-.8,1.523-1.255l.185-.165.226-.206.021-.021.185-.165.206-.185.185-.165L67.7,76.1h0l.062-.062.021-.021.062-.062.1-.1.041-.041L68.2,75.6l.247-.247.185-.185.021-.021c.123-.123.226-.247.329-.37a2.933,2.933,0,0,1,.226-.247l.082-.082.082-.1a.43.43,0,0,0,.082-.123l.494-.679a10.937,10.937,0,0,0,.638-.947c.041-.062.082-.144.123-.206.123-.185.206-.35.288-.494a.516.516,0,0,1,.082-.144c0-.021.021-.021.021-.041.021-.062.062-.1.082-.165.062-.123.144-.268.226-.432.391-.761.7-1.523.967-2.181l.021-.062v-.021a20.692,20.692,0,0,1,1.523-3.292l.247-.391.021-.021c0-.021.041-.062.062-.1a1.142,1.142,0,0,1,.123-.165l.206-.288h0l.37-.412.288-.329.082-.082.165-.185.1-.123c.185-.206.37-.391.556-.576l.021-.021c.885-.905,1.79-1.77,2.778-2.716L80.154,59l.123-.123H80.3c.268-.268.556-.514.823-.761.144-.144.288-.268.432-.412L83.8,55.642l1.79-1.584M85.71,52a.8.8,0,0,0-.556.226c-.185.165-.391.35-.617.576-.473.453-1.07.988-1.729,1.605s-1.42,1.317-2.243,2.058c-.412.37-.844.761-1.276,1.194-.432.412-.885.823-1.358,1.255-.926.864-1.873,1.79-2.819,2.757-.247.247-.473.494-.7.741l-.165.185-.082.1-.041.041-.021.021h0l-.021.021s0-.021.041-.041l-.021.021c-.226.268-.453.514-.679.782-.021.021-.041.041-.041.062l-.226.329c-.082.123-.165.226-.247.35l-.247.391A20.029,20.029,0,0,0,71,68.257c-.288.679-.576,1.42-.947,2.161-.082.185-.206.37-.288.556-.1.185-.185.37-.309.556-.226.35-.453.72-.7,1.049-.165.226-.35.453-.514.679-.021.041-.062.062-.082.1-.206.206-.391.453-.6.658l-.432.432-.206.206-.1.1-.062.062-.041.041-.021.021-.021.021c-.144.123-.268.247-.391.35-.123.123-.268.226-.391.35-.144.123-.288.247-.412.35-.576.494-1.111.926-1.646,1.358-.556.412-1.07.823-1.605,1.214-1.029.782-2.037,1.482-2.984,2.12-.72.494-3.642,2.325-5.083,3.231-.432.268-.144,1.07.226,1.317a13.221,13.221,0,0,0,7.676,2.243c5.865,0,12.738-3,18.335-8.6,8.54-8.54,11.071-20.063,6.029-26.463a.991.991,0,0,0-.72-.37Z" transform="translate(-49.467 -47.884)" fill="rgba(255,255,255,0.32)"/>
    </g>
    <g id="coffee-bean-3" data-name="coffee-bean" transform="matrix(0.574, 0.819, -0.819, 0.574, 367.232, 1696.406)">
      <path id="Trazado_69-3" data-name="Trazado 69" d="M34.659,2.3A13.116,13.116,0,0,0,26.922,0C20.954,0,14.2,3.046,8.608,8.622.068,17.162-2.463,28.686,2.578,35.085a.828.828,0,0,0,1.214.082c.185-.165.391-.35.617-.576.967-.885,2.325-2.14,3.972-3.663.8-.761,1.687-1.584,2.613-2.449.473-.432.926-.885,1.4-1.358.226-.226.473-.473.72-.7s.453-.473.7-.7c.123-.123.226-.247.35-.35.123-.123.247-.247.37-.391.123-.123.226-.247.35-.37,0-.021.021-.021.021-.041.082-.1.185-.226.268-.329.1-.123.206-.247.309-.35.1-.123.185-.247.288-.37l.268-.35c.021-.021.021-.021.021-.041l.247-.37a14.048,14.048,0,0,0,.905-1.646c.268-.6.514-1.214.782-1.893a19.058,19.058,0,0,1,2.222-4.3c.123-.165.247-.35.37-.514.165-.226.412-.473.576-.7a.546.546,0,0,0,.1-.123l.556-.556.391-.391.021-.021.062-.062h0l.021-.021.062-.041.1-.1.206-.185c.288-.247.556-.494.823-.72.556-.473,1.111-.905,1.646-1.338.535-.412,1.07-.823,1.605-1.214,1.029-.782,2.037-1.482,2.984-2.12.926-.638,1.79-1.194,2.572-1.687s1.44-.905,2.017-1.255c.1-.062.206-.123.288-.165A.837.837,0,0,0,34.659,2.3ZM31.428,3.7c0,.021-.021.021,0,0L31,3.992c-.658.432-1.4.905-2.181,1.44l-.082.062c-.905.617-1.914,1.317-2.943,2.1-.535.391-1.049.8-1.626,1.235l-.021.021-.123.1c-.494.391-1.029.823-1.543,1.255-.268.226-.514.453-.761.658l-.1.1-.206.185-.1.082-.021.021h0l-.062.062a.349.349,0,0,0-.123.123l-.021.021-.144.165-.226.226-.206.206-.329.329a.9.9,0,0,0-.123.144l-.041.041-.082.082a.43.43,0,0,0-.082.123,1.5,1.5,0,0,1-.185.206,4.373,4.373,0,0,0-.37.453l-.288.37-.082.123A20.279,20.279,0,0,0,16.489,18.6v.021c-.268.679-.514,1.276-.741,1.811a11.365,11.365,0,0,1-.782,1.44v.021l-.226.35-.247.329c-.041.062-.082.1-.123.165s-.082.1-.1.144l-.247.268-.062.062h0l-.206.247-.041.062-.37.35-.35.37h0l-.082.082-.268.268-.309.309c-.123.123-.247.268-.37.37h0l-.556.535-.144.144c-.123.123-.247.226-.35.35-.35.35-.679.658-1.029.988L7.99,29.056l-.72.679-3.91,3.6C-.447,27.451,2.249,17.327,9.78,9.8c5.083-5.083,11.585-8.149,17.141-8.149a12.383,12.383,0,0,1,5.7,1.317C32.252,3.19,31.861,3.437,31.428,3.7Z" transform="translate(0 0)" fill="rgba(255,255,255,0.5)"/>
      <path id="Trazado_70-3" data-name="Trazado 70" d="M32.318,1.42h0m-.679.638c3.807,5.906,1.111,16.03-6.42,23.541-5.083,5.083-11.5,8.128-17.162,8.128A12.156,12.156,0,0,1,2.336,32.41c1.482-.926,3.292-2.058,3.848-2.449l.226-.144c.844-.6,1.811-1.255,2.8-2l1.235-.926.391-.288.021-.021.165-.144c.494-.391.988-.8,1.523-1.255l.185-.165.226-.206.021-.021.185-.165.206-.185.185-.165.206-.185h0l.062-.062.021-.021.062-.062.1-.1.041-.041.206-.206.247-.247.185-.185.021-.021c.123-.123.226-.247.329-.37a2.933,2.933,0,0,1,.226-.247l.082-.082.082-.1a.43.43,0,0,0,.082-.123L16,21.545a10.937,10.937,0,0,0,.638-.947c.041-.062.082-.144.123-.206.123-.185.206-.35.288-.494a.516.516,0,0,1,.082-.144c0-.021.021-.021.021-.041.021-.062.062-.1.082-.165.062-.123.144-.268.226-.432.391-.761.7-1.523.967-2.181l.021-.062v-.021a20.692,20.692,0,0,1,1.523-3.292l.247-.391.021-.021c0-.021.041-.062.062-.1a1.141,1.141,0,0,1,.123-.165l.206-.288h0l.37-.412.288-.329.082-.082.165-.185.1-.123c.185-.206.37-.391.556-.576l.021-.021C23.1,9.96,24,9.1,24.992,8.149L26.206,7l.123-.123h.021c.268-.268.556-.514.823-.761.144-.144.288-.268.432-.412l2.243-2.058,1.79-1.584M31.762,0a.8.8,0,0,0-.556.226c-.185.165-.391.35-.617.576-.473.453-1.07.988-1.729,1.605s-1.42,1.317-2.243,2.058c-.412.37-.844.761-1.276,1.194-.432.412-.885.823-1.358,1.255-.926.864-1.873,1.79-2.819,2.757-.247.247-.473.494-.7.741L20.3,10.6l-.082.1-.041.041-.021.021h0l-.021.021s0-.021.041-.041l-.021.021c-.226.268-.453.514-.679.782-.021.021-.041.041-.041.062l-.226.329c-.082.123-.165.226-.247.35l-.247.391a20.03,20.03,0,0,0-1.667,3.581c-.288.679-.576,1.42-.947,2.161-.082.185-.206.37-.288.556-.1.185-.185.37-.309.556-.226.35-.453.72-.7,1.049-.165.226-.35.453-.514.679-.021.041-.062.062-.082.1-.206.206-.391.453-.6.658l-.432.432-.206.206-.1.1-.062.062-.041.041-.021.021-.021.021c-.144.123-.268.247-.391.35-.123.123-.268.226-.391.35-.144.123-.288.247-.412.35-.576.494-1.111.926-1.646,1.358-.556.412-1.07.823-1.605,1.214-1.029.782-2.037,1.482-2.984,2.12-.72.494-3.642,2.325-5.083,3.231-.432.268-.144,1.07.226,1.317a13.221,13.221,0,0,0,7.676,2.243c5.865,0,12.738-3,18.335-8.6C34.993,18.294,37.524,6.77,32.483.37a.991.991,0,0,0-.72-.37Z" transform="translate(4.481 4.116)" fill="rgba(255,255,255,0.5)"/>
    </g>
    <g id="coffee-bean-4" data-name="coffee-bean" transform="translate(172.408 1718.369)">
      <path id="Trazado_69-4" data-name="Trazado 69" d="M66.83,34.3A13.116,13.116,0,0,0,59.093,32c-5.968,0-12.717,3.046-18.314,8.622-8.54,8.54-11.071,20.063-6.029,26.463a.828.828,0,0,0,1.214.082c.185-.165.391-.35.617-.576.967-.885,2.325-2.14,3.972-3.663.8-.761,1.687-1.584,2.613-2.449.473-.432.926-.885,1.4-1.358.226-.226.473-.473.72-.7s.453-.473.7-.7c.123-.123.226-.247.35-.35.123-.123.247-.247.37-.391.123-.123.226-.247.35-.37,0-.021.021-.021.021-.041.082-.1.185-.226.268-.329.1-.123.206-.247.309-.35.1-.123.185-.247.288-.37l.268-.35c.021-.021.021-.021.021-.041l.247-.37a14.049,14.049,0,0,0,.905-1.646c.268-.6.514-1.214.782-1.893a19.058,19.058,0,0,1,2.222-4.3c.123-.165.247-.35.37-.514.165-.226.412-.473.576-.7a.546.546,0,0,0,.1-.123l.556-.556.391-.391.021-.021.062-.062h0l.021-.021.062-.041.1-.1.206-.185c.288-.247.556-.494.823-.72.556-.473,1.111-.905,1.646-1.338.535-.412,1.07-.823,1.605-1.214,1.029-.782,2.037-1.482,2.984-2.12.926-.638,1.79-1.194,2.572-1.687s1.44-.905,2.017-1.255c.1-.062.206-.123.288-.165A.837.837,0,0,0,66.83,34.3ZM63.6,35.7c0,.021-.021.021,0,0l-.432.288c-.658.432-1.4.905-2.181,1.44l-.082.062c-.905.617-1.914,1.317-2.943,2.1-.535.391-1.049.8-1.626,1.235l-.021.021-.123.1c-.494.391-1.029.823-1.543,1.255-.268.226-.514.453-.761.658l-.1.1-.206.185-.1.082-.021.021h0l-.062.062a.349.349,0,0,0-.123.123l-.021.021-.144.165-.226.226-.206.206-.329.329a.9.9,0,0,0-.123.144l-.041.041-.082.082a.43.43,0,0,0-.082.123,1.5,1.5,0,0,1-.185.206,4.374,4.374,0,0,0-.37.453l-.288.37-.082.123A20.278,20.278,0,0,0,48.66,50.6v.021c-.268.679-.514,1.276-.741,1.811a11.365,11.365,0,0,1-.782,1.44v.021l-.226.35-.247.329c-.041.062-.082.1-.123.165s-.082.1-.1.144l-.247.268-.062.062h0l-.206.247-.041.062-.37.35-.35.37h0l-.082.082-.268.268L44.5,56.9c-.123.123-.247.268-.37.37h0l-.556.535-.144.144c-.123.123-.247.226-.35.35-.35.35-.679.658-1.029.988l-1.893,1.77-.72.679-3.91,3.6c-3.807-5.885-1.111-16.01,6.42-23.541,5.083-5.083,11.585-8.149,17.141-8.149a12.383,12.383,0,0,1,5.7,1.317C64.422,35.19,64.031,35.437,63.6,35.7Z" transform="translate(-32.171 -32)" fill="#fff"/>
      <path id="Trazado_70-4" data-name="Trazado 70" d="M86.266,53.42h0m-.679.638c3.807,5.906,1.111,16.03-6.42,23.541-5.083,5.083-11.5,8.128-17.162,8.128a12.156,12.156,0,0,1-5.721-1.317c1.482-.926,3.292-2.058,3.848-2.449l.226-.144c.844-.6,1.811-1.255,2.8-2l1.235-.926.391-.288.021-.021.165-.144c.494-.391.988-.8,1.523-1.255l.185-.165.226-.206.021-.021.185-.165.206-.185.185-.165L67.7,76.1h0l.062-.062.021-.021.062-.062.1-.1.041-.041L68.2,75.6l.247-.247.185-.185.021-.021c.123-.123.226-.247.329-.37a2.933,2.933,0,0,1,.226-.247l.082-.082.082-.1a.43.43,0,0,0,.082-.123l.494-.679a10.937,10.937,0,0,0,.638-.947c.041-.062.082-.144.123-.206.123-.185.206-.35.288-.494a.516.516,0,0,1,.082-.144c0-.021.021-.021.021-.041.021-.062.062-.1.082-.165.062-.123.144-.268.226-.432.391-.761.7-1.523.967-2.181l.021-.062v-.021a20.692,20.692,0,0,1,1.523-3.292l.247-.391.021-.021c0-.021.041-.062.062-.1a1.142,1.142,0,0,1,.123-.165l.206-.288h0l.37-.412.288-.329.082-.082.165-.185.1-.123c.185-.206.37-.391.556-.576l.021-.021c.885-.905,1.79-1.77,2.778-2.716L80.154,59l.123-.123H80.3c.268-.268.556-.514.823-.761.144-.144.288-.268.432-.412L83.8,55.642l1.79-1.584M85.71,52a.8.8,0,0,0-.556.226c-.185.165-.391.35-.617.576-.473.453-1.07.988-1.729,1.605s-1.42,1.317-2.243,2.058c-.412.37-.844.761-1.276,1.194-.432.412-.885.823-1.358,1.255-.926.864-1.873,1.79-2.819,2.757-.247.247-.473.494-.7.741l-.165.185-.082.1-.041.041-.021.021h0l-.021.021s0-.021.041-.041l-.021.021c-.226.268-.453.514-.679.782-.021.021-.041.041-.041.062l-.226.329c-.082.123-.165.226-.247.35l-.247.391A20.029,20.029,0,0,0,71,68.257c-.288.679-.576,1.42-.947,2.161-.082.185-.206.37-.288.556-.1.185-.185.37-.309.556-.226.35-.453.72-.7,1.049-.165.226-.35.453-.514.679-.021.041-.062.062-.082.1-.206.206-.391.453-.6.658l-.432.432-.206.206-.1.1-.062.062-.041.041-.021.021-.021.021c-.144.123-.268.247-.391.35-.123.123-.268.226-.391.35-.144.123-.288.247-.412.35-.576.494-1.111.926-1.646,1.358-.556.412-1.07.823-1.605,1.214-1.029.782-2.037,1.482-2.984,2.12-.72.494-3.642,2.325-5.083,3.231-.432.268-.144,1.07.226,1.317a13.221,13.221,0,0,0,7.676,2.243c5.865,0,12.738-3,18.335-8.6,8.54-8.54,11.071-20.063,6.029-26.463a.991.991,0,0,0-.72-.37Z" transform="translate(-49.467 -47.884)" fill="#fff"/>
    </g>
  </g>
</svg>
