<svg xmlns="http://www.w3.org/2000/svg" width="112" height="112" viewBox="0 0 112 112">
  <g id="Grupo_309" data-name="Grupo 309" transform="translate(-709 -3253)">
    <circle id="Elipse_65" data-name="Elipse 65" cx="56" cy="56" r="56" transform="translate(709 3253)" fill="#17b978"/>
    <g id="instagram" transform="translate(728.202 3274.994)">
      <path id="Trazado_96" data-name="Trazado 96" d="M63.469,36.074c0,3.815-.077,7.642.022,11.457a15.16,15.16,0,0,1-9.484,14.3A17.15,17.15,0,0,1,47.2,63.253c-7.379.011-14.768.11-22.147-.033A16.147,16.147,0,0,1,11.644,56.2,13.688,13.688,0,0,1,9.1,48.079V24.507c0-6.414,3.125-10.9,8.672-13.814a16.664,16.664,0,0,1,7.762-1.809c7.159,0,14.33-.044,21.489.022A16.481,16.481,0,0,1,60.641,15.55a13.719,13.719,0,0,1,2.829,8.53Zm-50.324,0v12.06a9.423,9.423,0,0,0,1.349,5.01,12.125,12.125,0,0,0,10.723,6.03c7.357.11,14.724.044,22.092.022a11.985,11.985,0,0,0,5.2-1.151c4.451-2.127,6.94-5.515,6.918-10.6-.044-7.784-.011-15.569-.011-23.353a9.893,9.893,0,0,0-1.93-6,12.257,12.257,0,0,0-10.174-5.131c-7.346-.088-14.691-.033-22.037-.022a12.943,12.943,0,0,0-4.55.866,11.232,11.232,0,0,0-7.609,10.909C13.244,28.509,13.146,32.291,13.146,36.074Z" fill="#fefefe"/>
      <path id="Trazado_97" data-name="Trazado 97" d="M153.784,158.216A12.609,12.609,0,1,1,166.545,145.6,12.7,12.7,0,0,1,153.784,158.216Zm0-4.057a8.559,8.559,0,1,0-8.738-8.563A8.638,8.638,0,0,0,153.784,154.16Z" transform="translate(-117.439 -110.521)" fill="#fefefe"/>
      <path id="Trazado_98" data-name="Trazado 98" d="M365.775,98a2.8,2.8,0,1,1-2.675,2.818A2.753,2.753,0,0,1,365.775,98Z" transform="translate(-315.188 -79.359)" fill="#fefefe"/>
    </g>
  </g>
</svg>
