<svg xmlns="http://www.w3.org/2000/svg" width="112" height="112" viewBox="0 0 112 112">
  <g id="Grupo_312" data-name="Grupo 312" transform="translate(-1401 -3253)">
    <circle id="Elipse_66" data-name="Elipse 66" cx="56" cy="56" r="56" transform="translate(1401 3253)" fill="#17b978"/>
    <g id="computer_website_check_result" transform="translate(1427.348 3281.864)">
      <g id="Grupo_292" data-name="Grupo 292" transform="translate(1 2)">
        <g id="Grupo_291" data-name="Grupo 291">
          <g id="Grupo_290" data-name="Grupo 290" transform="translate(0 3.754)">
            <g id="response_time_5_">
              <circle id="Elipse_68" data-name="Elipse 68" cx="1" cy="1" r="1" transform="translate(11 0.246)" fill="#fefefe"/>
              <ellipse id="Elipse_69" data-name="Elipse 69" cx="0.5" cy="1" rx="0.5" ry="1" transform="translate(8 0.246)" fill="#fefefe"/>
              <circle id="Elipse_70" data-name="Elipse 70" cx="1" cy="1" r="1" transform="translate(4 0.246)" fill="#fefefe"/>
              <path id="Trazado_84" data-name="Trazado 84" d="M56.365,7.877H1.938A.938.938,0,1,1,1.938,6H56.365a.938.938,0,1,1,0,1.877Z" transform="translate(-1 -2.246)" fill="#fefefe"/>
            </g>
          </g>
          <path id="Trazado_85" data-name="Trazado 85" d="M1.938,39.536A.939.939,0,0,1,1,38.6V4.815A2.819,2.819,0,0,1,3.815,2H54.488A2.819,2.819,0,0,1,57.3,4.815V21.706a.938.938,0,1,1-1.877,0V4.815a.94.94,0,0,0-.938-.938H3.815a.94.94,0,0,0-.938.938V38.6A.939.939,0,0,1,1.938,39.536Z" transform="translate(-1 -2)" fill="#fefefe"/>
        </g>
        <path id="Trazado_86" data-name="Trazado 86" d="M32.521,36.261H10.938a.938.938,0,0,1,0-1.877h1.877a2.819,2.819,0,0,0,2.815-2.815V29.692a.938.938,0,1,1,1.877,0v1.877a4.671,4.671,0,0,1-.94,2.815h9.388a4.671,4.671,0,0,1-.94-2.815v-5.63a.938.938,0,1,1,1.877,0v5.63a2.819,2.819,0,0,0,2.815,2.815h2.815a.938.938,0,1,1,0,1.877Z" transform="translate(6.891 18.166)" fill="#fefefe"/>
        <path id="Trazado_87" data-name="Trazado 87" d="M33.844,30.384H3.815A2.819,2.819,0,0,1,1,27.569v-5.63A.939.939,0,0,1,1.938,21H28.213a.938.938,0,1,1,0,1.877H2.877v4.692a.94.94,0,0,0,.938.938H33.844a.938.938,0,0,1,0,1.877Z" transform="translate(-1 14.659)" fill="#fefefe"/>
      </g>
      <g id="Grupo_296" data-name="Grupo 296" transform="translate(31.029 15.137)">
        <g id="Grupo_293" data-name="Grupo 293" transform="translate(0 7.507)">
          <path id="Trazado_88" data-name="Trazado 88" d="M19.815,14.877H17.938a.938.938,0,1,1,0-1.877h1.877a.938.938,0,1,1,0,1.877Z" transform="translate(-17 -13)" fill="#fefefe"/>
        </g>
        <g id="Grupo_294" data-name="Grupo 294">
          <path id="Trazado_89" data-name="Trazado 89" d="M36.706,10.877H17.938a.938.938,0,1,1,0-1.877H36.706a.938.938,0,1,1,0,1.877Z" transform="translate(-17 -9)" fill="#fefefe"/>
        </g>
        <g id="Grupo_295" data-name="Grupo 295" transform="translate(0 3.754)">
          <path id="Trazado_90" data-name="Trazado 90" d="M36.706,12.877H17.938a.938.938,0,1,1,0-1.877H36.706a.938.938,0,0,1,0,1.877Z" transform="translate(-17 -11)" fill="#fefefe"/>
        </g>
      </g>
      <g id="Grupo_300" data-name="Grupo 300" transform="translate(6.63 15.137)">
        <g id="Grupo_297" data-name="Grupo 297" transform="translate(0 7.507)">
          <path id="Trazado_91" data-name="Trazado 91" d="M10.569,14.877H4.938a.938.938,0,1,1,0-1.877h5.63a.938.938,0,1,1,0,1.877Z" transform="translate(-4 -13)" fill="#fefefe"/>
        </g>
        <g id="Grupo_298" data-name="Grupo 298">
          <path id="Trazado_92" data-name="Trazado 92" d="M23.706,10.877H4.938A.938.938,0,1,1,4.938,9H23.706a.938.938,0,0,1,0,1.877Z" transform="translate(-4 -9)" fill="#fefefe"/>
        </g>
        <g id="Grupo_299" data-name="Grupo 299" transform="translate(0 3.754)">
          <path id="Trazado_93" data-name="Trazado 93" d="M23.706,12.877H4.938a.938.938,0,1,1,0-1.877H23.706a.938.938,0,1,1,0,1.877Z" transform="translate(-4 -11)" fill="#fefefe"/>
        </g>
      </g>
      <g id="Grupo_307" data-name="Grupo 307" transform="translate(31.029 22.645)">
        <g id="Grupo_303" data-name="Grupo 303">
          <g id="Grupo_302" data-name="Grupo 302">
            <g id="Grupo_301" data-name="Grupo 301">
              <path id="Trazado_94" data-name="Trazado 94" d="M30.137,39.275a13.137,13.137,0,1,1,7.117-24.182.938.938,0,1,1-1.019,1.575,11.238,11.238,0,1,0,4.6,5.948.939.939,0,0,1,1.783-.587A13.149,13.149,0,0,1,30.137,39.275Z" transform="translate(-17 -13)" fill="#fefefe"/>
            </g>
          </g>
        </g>
        <g id="Grupo_306" data-name="Grupo 306" transform="translate(6.568 2.65)">
          <g id="Grupo_305" data-name="Grupo 305">
            <g id="Grupo_304" data-name="Grupo 304">
              <path id="Trazado_95" data-name="Trazado 95" d="M26.131,29.965h-.023a.944.944,0,0,1-.7-.338L20.716,24a.939.939,0,1,1,1.443-1.2l4,4.806L37.827,14.716a.938.938,0,1,1,1.381,1.269L26.821,29.661A.929.929,0,0,1,26.131,29.965Z" transform="translate(-20.5 -14.412)" fill="#fefefe"/>
            </g>
          </g>
        </g>
      </g>
    </g>
  </g>
</svg>
