<svg id="phone-call-auricular-symbol-in-black_icon-icons.com_56483" xmlns="http://www.w3.org/2000/svg" width="17.635" height="17.632" viewBox="0 0 17.635 17.632">
  <path id="Trazado_25" data-name="Trazado 25" d="M17.555,14.1l-.088-.264A2.479,2.479,0,0,0,15.952,12.4l-2.317-.633a2.27,2.27,0,0,0-1.984.519l-.839.839a8.894,8.894,0,0,1-6.259-6.26l.839-.839a2.268,2.268,0,0,0,.519-1.983L5.279,1.725A2.477,2.477,0,0,0,3.845.211L3.581.122A2.1,2.1,0,0,0,1.622.584L.368,1.84A2.34,2.34,0,0,0,0,2.7,14.8,14.8,0,0,0,14.938,17.674a2.33,2.33,0,0,0,.9-.364l1.254-1.254A2.1,2.1,0,0,0,17.555,14.1Z" transform="translate(0 -0.043)" fill="#fbfbfb"/>
</svg>
