<svg xmlns="http://www.w3.org/2000/svg" width="112" height="112" viewBox="0 0 112 112">
  <g id="Grupo_308" data-name="Grupo 308" transform="translate(-363 -3253)">
    <circle id="Elipse_65" data-name="Elipse 65" cx="56" cy="56" r="56" transform="translate(363 3253)" fill="#17b978"/>
    <g id="contact-phone-call" transform="translate(396.126 3288.665)">
      <path id="Trazado_80" data-name="Trazado 80" d="M44.546,35.705l-.223-.671A6.291,6.291,0,0,0,40.478,31.4L34.6,29.794a5.761,5.761,0,0,0-5.035,1.316l-2.128,2.128A22.569,22.569,0,0,1,11.554,17.353l2.128-2.128A5.754,5.754,0,0,0,15,10.194l-1.6-5.882A6.285,6.285,0,0,0,9.758.47L9.087.244a5.335,5.335,0,0,0-4.97,1.172L.934,4.6A5.937,5.937,0,0,0,0,6.791a37.564,37.564,0,0,0,37.9,37.99,5.913,5.913,0,0,0,2.286-.923l3.183-3.183A5.335,5.335,0,0,0,44.546,35.705Z" transform="translate(0)" fill="#f9f9f9"/>
    </g>
  </g>
</svg>
