<svg xmlns="http://www.w3.org/2000/svg" width="16.817" height="18.8" viewBox="0 0 16.817 18.8">
  <g id="logout" transform="translate(16.817 18.8) rotate(180)">
    <line id="Línea_5" data-name="Línea 5" x2="9.533" transform="translate(15.817 9.189) rotate(180)" fill="none" stroke="#fbfbfb" stroke-linecap="round" stroke-linejoin="round" stroke-width="2"/>
    <path id="Trazado_26" data-name="Trazado 26" d="M18.016,17.443v2.014H7.273V3.343H18.016V5.357h1.343V2.671A.671.671,0,0,0,18.687,2H6.6a.671.671,0,0,0-.671.671V20.129A.671.671,0,0,0,6.6,20.8H18.687a.671.671,0,0,0,.671-.671V17.443Z" transform="translate(-5.93 -2)" fill="#fbfbfb"/>
    <line id="Línea_6" data-name="Línea 6" x1="2.86" y2="2.86" transform="translate(9.143 9.189) rotate(180)" fill="none" stroke="#fbfbfb" stroke-linecap="round" stroke-linejoin="round" stroke-width="2"/>
    <line id="Línea_7" data-name="Línea 7" x1="2.86" y1="2.86" transform="translate(9.143 12.048) rotate(180)" fill="none" stroke="#fbfbfb" stroke-linecap="round" stroke-linejoin="round" stroke-width="2"/>
    <line id="Línea_8" data-name="Línea 8" y1="1.343" transform="translate(12.751 2.746)" fill="none" stroke="#fbfbfb" stroke-linecap="round" stroke-linejoin="round" stroke-width="2"/>
    <line id="Línea_9" data-name="Línea 9" y1="0.953" transform="translate(12.957 14.909)" fill="none" stroke="#fbfbfb" stroke-linecap="round" stroke-linejoin="round" stroke-width="2"/>
  </g>
</svg>
