<svg xmlns="http://www.w3.org/2000/svg" width="9.702" height="19.738" viewBox="0 0 9.702 19.738">
  <g id="Grupo_18" data-name="Grupo 18" transform="translate(-5.018 9.869) rotate(-45)">
    <path id="Trazado_27" data-name="Trazado 27" d="M5.734.091a.286.286,0,0,0-.418,0L2.3,3.108.991,1.8a.559.559,0,0,0-.409-.173A.56.56,0,0,0,.173,1.8.559.559,0,0,0,0,2.208V6.279a.559.559,0,0,0,.173.409.56.56,0,0,0,.409.173H4.652a.578.578,0,0,0,.409-.991L3.753,4.562,6.77,1.545a.286.286,0,0,0,0-.418Z" transform="translate(0 7.096)" fill="#3a3a3a"/>
    <path id="Trazado_28" data-name="Trazado 28" d="M6.688.173A.559.559,0,0,0,6.279,0H2.208A.559.559,0,0,0,1.8.173a.559.559,0,0,0-.173.409A.559.559,0,0,0,1.8.99L3.108,2.3.091,5.316a.286.286,0,0,0,0,.418L1.127,6.769a.286.286,0,0,0,.418,0L4.562,3.753,5.87,5.061a.582.582,0,0,0,.991-.409V.581A.557.557,0,0,0,6.688.173Z" transform="translate(7.096 0)" fill="#3a3a3a"/>
  </g>
</svg>
