<svg xmlns="http://www.w3.org/2000/svg" width="17.504" height="17.505" viewBox="0 0 17.504 17.505">
  <path id="certification_icon_214928" d="M2.043,13.1a.869.869,0,0,0,.408.532l1.673.967v1.927A.876.876,0,0,0,5,17.4H6.927l.967,1.674a.878.878,0,0,0,1.2.321l1.673-.967,1.674.967a.878.878,0,0,0,1.2-.321l.967-1.673h1.927a.876.876,0,0,0,.876-.876V14.6l1.673-.967a.875.875,0,0,0,.321-1.2l-.967-1.674L19.4,9.091a.876.876,0,0,0-.321-1.2l-1.673-.967V5a.876.876,0,0,0-.876-.876H14.6l-.967-1.673a.88.88,0,0,0-.532-.408.871.871,0,0,0-.665.088L10.765,3.1,9.092,2.129a.875.875,0,0,0-1.2.32L6.927,4.123H5A.876.876,0,0,0,4.124,5V6.926l-1.673.968a.877.877,0,0,0-.32,1.2L3.1,10.764,2.13,12.437a.879.879,0,0,0-.088.664Z" transform="translate(-2.013 -2.011)" fill="#3a3a3a"/>
</svg>
