<svg id="hanshake-deal" xmlns="http://www.w3.org/2000/svg" width="16" height="13.332" viewBox="0 0 16 13.332">
  <path id="Trazado_58" data-name="Trazado 58" d="M24.851,28.434a.48.48,0,0,0,.591.069l1.674-1.046a1.223,1.223,0,0,1,1.509.174,1.56,1.56,0,0,0,1.1.457,1.2,1.2,0,0,1,.857.351l.783.811a.8.8,0,0,0,1.143-1.111L30.7,26.294a3.523,3.523,0,0,0-2.511-1.054,1.952,1.952,0,0,0-1.38.572L24.86,27.757A.48.48,0,0,0,24.851,28.434Z" transform="translate(-18.797 -20.51)" fill="#3a3a3a"/>
  <path id="Trazado_59" data-name="Trazado 59" d="M18.606,48.116a.34.34,0,0,0,.24-.571l-2.16-2.16a.4.4,0,1,0-.571.571l1.94,1.94A.78.78,0,0,0,18.606,48.116Z" transform="translate(-12.568 -34.814)" fill="#3a3a3a"/>
  <path id="Trazado_60" data-name="Trazado 60" d="M5.951,15.466,8.26,13.157a.44.44,0,0,0,0-.623L4.471,8.757a.286.286,0,0,0-.471.2v5.714a1.143,1.143,0,0,0,1.951.809Z" transform="translate(-4 -8.687)" fill="#3a3a3a"/>
  <path id="Trazado_61" data-name="Trazado 61" d="M48.617,8.755l-3.746,3.734a.5.5,0,0,0,0,.711l2.266,2.266a1.143,1.143,0,0,0,1.951-.811V8.941a.286.286,0,0,0-.471-.186Z" transform="translate(-33.089 -8.685)" fill="#3a3a3a"/>
  <path id="Trazado_62" data-name="Trazado 62" d="M12.71,27.286h0l-.8.8a.986.986,0,0,0-.017,1.377l.749.789a.34.34,0,0,0,.489,0,.469.469,0,0,1,.663,0l2.9,2.917a2.683,2.683,0,0,0,3.791,0l.857-.857a1.766,1.766,0,0,0,0-2.494h0a1.714,1.714,0,0,0-1.177-.469,1.143,1.143,0,0,1-.766-.331l-.571-.571a.769.769,0,0,0-.966-.1l-1.043.686a2.029,2.029,0,0,1-1.1.334H15.5a.871.871,0,0,1-.877-.871v-.154a1.714,1.714,0,0,1,.5-1.211L16.2,26.049a.38.38,0,0,0-.269-.649,3.143,3.143,0,0,0-2.217.92Z" transform="translate(-9.442 -20.624)" fill="#3a3a3a"/>
</svg>
