<svg xmlns="http://www.w3.org/2000/svg" width="9.796" height="18.516" viewBox="0 0 9.796 18.516">
  <path id="Trazado_48" data-name="Trazado 48" d="M89.46,67.938a.413.413,0,0,0,.236-.369.407.407,0,0,0-.318-.4v-.02a.407.407,0,0,0,.318-.4.411.411,0,0,0-.41-.41h0a.41.41,0,0,0,0-.82h-.543l.3-.881a5.011,5.011,0,0,0,.256-1.557v-1.66a.41.41,0,0,0,0-.82H85.608V59.3a1.207,1.207,0,0,1-.82,0v1.3h-3.7a.41.41,0,1,0,0,.82h0v1.66a4.728,4.728,0,0,0,.256,1.557l.3.881h-.553a.41.41,0,0,0,0,.82.411.411,0,0,0-.41.41.407.407,0,0,0,.318.4v.02a.409.409,0,0,0-.082.768l-.6,5.461a2.137,2.137,0,0,0,.031.625l.43,2.142a2.05,2.05,0,0,0,2.008,1.65h4.836a2.2,2.2,0,0,0,.861-.184,1.735,1.735,0,0,0,.3-.174,2.09,2.09,0,0,0,.85-1.291l.43-2.142a2.137,2.137,0,0,0,.031-.625Zm-8.32,5.933a1.543,1.543,0,0,1-.02-.379l.615-5.513h6.916l.615,5.513a1.182,1.182,0,0,1-.02.379l-.133.666H81.273Zm.973-9.488a3.958,3.958,0,0,1-.2-1.291v-1.67h6.558v1.66a3.924,3.924,0,0,1-.215,1.291l-.379,1.137H82.493Z" transform="translate(-80.3 -59.3)" fill="#3a3a3a"/>
</svg>
