<svg id="world" xmlns="http://www.w3.org/2000/svg" width="16.078" height="16.078" viewBox="0 0 16.078 16.078">
  <g id="language">
    <path id="Trazado_44" data-name="Trazado 44" d="M8.039,0a8.039,8.039,0,1,0,8.039,8.039A8.063,8.063,0,0,0,8.039,0Zm5.547,4.823H11.255a12.706,12.706,0,0,0-1.125-2.894A6.471,6.471,0,0,1,13.586,4.823ZM8.039,1.608A10.794,10.794,0,0,1,9.566,4.823H6.512A11.82,11.82,0,0,1,8.039,1.608ZM1.849,9.647a5.183,5.183,0,0,1-.241-1.608,5.183,5.183,0,0,1,.241-1.608H4.582A10.774,10.774,0,0,0,4.5,8.039c0,.563.08,1.045.08,1.608Zm.643,1.608H4.823a12.706,12.706,0,0,0,1.125,2.894A6.471,6.471,0,0,1,2.492,11.255ZM4.823,4.823H2.492A6.775,6.775,0,0,1,5.949,1.929,12.706,12.706,0,0,0,4.823,4.823ZM8.039,14.47a10.794,10.794,0,0,1-1.527-3.216H9.566A11.82,11.82,0,0,1,8.039,14.47ZM9.888,9.647H6.19a10.9,10.9,0,0,1-.161-1.608A10.9,10.9,0,0,1,6.19,6.431H9.968a10.9,10.9,0,0,1,.161,1.608A11.1,11.1,0,0,1,9.888,9.647Zm.241,4.5a11.405,11.405,0,0,0,1.125-2.894h2.331A6.471,6.471,0,0,1,10.129,14.149Zm1.447-4.5a10.774,10.774,0,0,0,.08-1.608c0-.563-.08-1.045-.08-1.608H14.31a5.183,5.183,0,0,1,.241,1.608,5.184,5.184,0,0,1-.241,1.608Z" fill="#3a3a3a"/>
  </g>
</svg>
