<svg id="Glyph_copy_2" xmlns="http://www.w3.org/2000/svg" width="11.738" height="16.776" viewBox="0 0 11.738 16.776">
  <path id="Trazado_50" data-name="Trazado 50" d="M27.178,15.714a2.658,2.658,0,1,0-2.658,2.646A2.655,2.655,0,0,0,27.178,15.714Z" transform="translate(-18.651 -9.643)" fill="#3a3a3a"/>
  <path id="Trazado_51" data-name="Trazado 51" d="M15.481,16.78l1.077-1.409c1.124-1.489,4.793-6.56,4.793-9.333C21.351,2.429,18.993,0,15.482,0S9.613,2.429,9.613,6.038c0,2.986,4.308,8.695,4.8,9.334ZM11.776,6.075A3.706,3.706,0,1,1,15.482,9.77,3.7,3.7,0,0,1,11.776,6.075Z" transform="translate(-9.613 -0.004)" fill="#3a3a3a"/>
</svg>
