<svg id="fire_icon-icons.com_70969" xmlns="http://www.w3.org/2000/svg" width="14.83" height="17.081" viewBox="0 0 14.83 17.081">
  <path id="Trazado_49" data-name="Trazado 49" d="M39.311,17.081a4.351,4.351,0,0,1,.343-5,7.973,7.973,0,0,0,1.205-2.787A3.274,3.274,0,0,1,41.31,11.8a6.336,6.336,0,0,0,1.381-4.745,8.194,8.194,0,0,1,2.561,10.026c9.214-5.213,2.292-13.014,1.087-13.892a2.859,2.859,0,0,1-.334,3.088C44.632,1.068,41.235,0,41.235,0c.4,2.686-1.456,5.624-3.248,7.819a5.805,5.805,0,0,0-.693-2.835c-.126,1.946-1.614,3.532-2.016,5.482C34.733,13.105,35.687,15.039,39.311,17.081Z" transform="translate(-35.136 0)" fill="#3a3a3a"/>
</svg>
