<svg xmlns="http://www.w3.org/2000/svg" width="16.942" height="16.942" viewBox="0 0 16.942 16.942">
  <path id="Trazado_52" data-name="Trazado 52" d="M16.836,1.641A.265.265,0,0,0,16.6,1.6L11.38,3.166l-.531-.145c0-.037,0-.074,0-.11C10.854.925,10.181,0,8.736,0,7.557,0,6.9.6,6.694,1.888L5.629,1.6H5.616a.251.251,0,0,0-.06,0,.256.256,0,0,0-.059,0s-.01,0-.014,0L.188,3.188A.266.266,0,0,0,0,3.441V16.678a.265.265,0,0,0,.341.254l5.222-1.567,5.751,1.568a.271.271,0,0,0,.07.009.265.265,0,0,0,.076-.011l5.294-1.588a.265.265,0,0,0,.189-.254V1.853A.264.264,0,0,0,16.836,1.641ZM8.736.529c.825,0,1.588.289,1.588,2.383,0,.1-.005.192-.012.29h0A12.984,12.984,0,0,1,8.736,7.666,12.063,12.063,0,0,1,7.148,2.912,6.444,6.444,0,0,1,7.18,2.25h0C7.332.738,8.018.529,8.736.529ZM.529,3.638l4.765-1.43V14.892L.529,16.322ZM5.824,2.2l.81.221c0,.016,0,.035,0,.051-.009.143-.014.288-.014.44,0,2.24,1.813,5.3,1.891,5.43a.265.265,0,0,0,.454,0L8.99,8.3l0,0L9.045,8.2l.008-.013.074-.132.011-.021c.028-.051.059-.107.092-.169l.016-.03q.05-.093.106-.2l.022-.042.116-.227.025-.05q.062-.123.126-.256l.023-.048c.044-.092.088-.186.133-.284l.022-.049c.046-.1.092-.2.137-.309l.018-.043q.071-.165.141-.337l.012-.03q.068-.169.133-.344l.012-.032q.066-.177.126-.358l.017-.05q.059-.176.112-.355l.017-.059c.034-.117.066-.235.1-.353.005-.021.011-.042.016-.064.029-.116.054-.233.077-.349l.013-.066q.033-.173.056-.344c0-.011,0-.022.005-.033l.311.085V16.331L5.824,14.887ZM16.413,14.892l-4.765,1.43V3.638l4.765-1.43Z"/>
</svg>
