<svg xmlns="http://www.w3.org/2000/svg" width="32.877" height="38.356" viewBox="0 0 32.877 38.356">
  <g id="Grupo_348" data-name="Grupo 348" transform="translate(-4597.562 1351)">
    <g id="about" transform="translate(4597.562 -1351)">
      <path id="Trazado_15" data-name="Trazado 15" d="M18.589,21.178A9.589,9.589,0,1,0,9,11.589a9.589,9.589,0,0,0,9.589,9.589Zm0-16.438a6.849,6.849,0,1,1-6.849,6.849A6.849,6.849,0,0,1,18.589,4.74Z" transform="translate(-2.151 -2)" fill="#fff"/>
      <path id="Trazado_16" data-name="Trazado 16" d="M21.808,18h-2.74A15.068,15.068,0,0,0,4,33.069a1.37,1.37,0,0,0,1.37,1.37H35.507a1.37,1.37,0,0,0,1.37-1.37A15.068,15.068,0,0,0,21.808,18ZM6.822,31.7A12.329,12.329,0,0,1,19.068,20.74h2.74A12.329,12.329,0,0,1,34.055,31.7Z" transform="translate(-4 3.918)" fill="#fff"/>
    </g>
  </g>
</svg>
