<svg id="home_icon-icons.com_73532" xmlns="http://www.w3.org/2000/svg" width="20.022" height="15.934" viewBox="0 0 20.022 15.934">
  <g id="Grupo_12" data-name="Grupo 12" transform="translate(0 0)">
    <path id="Trazado_23" data-name="Trazado 23" d="M72.851,120.939l-7.141,5.887a.169.169,0,0,1-.006.037.17.17,0,0,0-.006.037v5.961a.806.806,0,0,0,.795.8h4.769v-4.769h3.18v4.769H79.21a.807.807,0,0,0,.8-.8V126.9a.175.175,0,0,0-.013-.074Z" transform="translate(-62.84 -117.723)" fill="#fbfbfb"/>
    <path id="Trazado_24" data-name="Trazado 24" d="M19.883,54.756l-2.72-2.26V47.429a.383.383,0,0,0-.4-.4H14.382a.382.382,0,0,0-.4.4V49.85l-3.03-2.534a1.541,1.541,0,0,0-1.887,0L.137,54.756A.361.361,0,0,0,0,55.023a.4.4,0,0,0,.087.292l.77.919a.424.424,0,0,0,.261.137.462.462,0,0,0,.3-.087l8.594-7.166L18.6,56.284a.383.383,0,0,0,.261.087H18.9a.424.424,0,0,0,.261-.136l.77-.919a.4.4,0,0,0,.087-.292A.362.362,0,0,0,19.883,54.756Z" transform="translate(0.001 -46.994)" fill="#fbfbfb"/>
  </g>
</svg>
