<svg xmlns="http://www.w3.org/2000/svg" width="17.523" height="17.524" viewBox="0 0 17.523 17.524">
  <g id="layer1" transform="translate(-0.53 -0.529)">
    <path id="path2792" d="M4.026.529a.876.876,0,0,0-.8.531C2.3,3.36,1.2,5.616.533,7.658.525,9.292.419,11.312,2.281,11.873v5.307a.876.876,0,0,0,.873.873H15.417a.876.876,0,0,0,.88-.873v-5.3c2-.4,1.752-2.584,1.74-4.205a57.014,57.014,0,0,0-2.69-6.612.876.876,0,0,0-.8-.531H4.026ZM6.672,11.495a2.254,2.254,0,0,0,2.627,0,2.233,2.233,0,0,0,2.632,0,2.237,2.237,0,0,0,2.613.019V16.3H11.917v-.873a2.629,2.629,0,1,0-5.257,0V16.3H4.026V11.526a2.336,2.336,0,0,0,2.646-.031Z" transform="translate(0 0)" fill="#fefefe"/>
  </g>
</svg>
