<svg xmlns="http://www.w3.org/2000/svg" width="27.537" height="18" viewBox="0 0 27.537 18">
  <path id="truck_shipping" d="M28.537,12.35s0-.009,0-.016a.631.631,0,0,0-.634-.62h-.166l-2.571-4.97A.632.632,0,0,0,24.6,6.4H20.213l.167-1.327a1.8,1.8,0,0,0-1.818-2H4.941a.673.673,0,0,0-.666.607L4.138,4.778H11.9a.884.884,0,0,1,.889.912.942.942,0,0,1-.936.912H9.263v0h-7.6A.666.666,0,0,0,1,7.253a.625.625,0,0,0,.628.645H11.692a.946.946,0,0,1,.8.965,1.009,1.009,0,0,1-1,.977H4.563a.673.673,0,0,0-.669.652.632.632,0,0,0,.635.652h6.857a.946.946,0,0,1,.817.967,1.009,1.009,0,0,1-1,.978H2.672A.673.673,0,0,0,2,13.741a.632.632,0,0,0,.635.652h.57l-.223,2.334a1.8,1.8,0,0,0,1.818,2H5.3a2.843,2.843,0,0,0,2.814,2.354,3.035,3.035,0,0,0,2.937-2.354h6.141a2.08,2.08,0,0,0,1.335-.5,1.814,1.814,0,0,0,1.272.5h.1a2.843,2.843,0,0,0,2.814,2.354,3.035,3.035,0,0,0,2.937-2.354h.405a2.141,2.141,0,0,0,2.087-1.914l.4-4.4c0-.007,0-.011,0-.018s0-.018,0-.027,0-.011,0-.016ZM8.143,19.774a1.581,1.581,0,0,1-1.587-1.629,1.684,1.684,0,0,1,1.672-1.629,1.581,1.581,0,0,1,1.587,1.629A1.684,1.684,0,0,1,8.143,19.774Zm14.6,0a1.581,1.581,0,0,1-1.587-1.629,1.684,1.684,0,0,1,1.672-1.629,1.581,1.581,0,0,1,1.587,1.629A1.684,1.684,0,0,1,22.742,19.774Zm4.1-3.047a.785.785,0,0,1-.755.693h-.438a2.843,2.843,0,0,0-2.784-2.208,3.036,3.036,0,0,0-2.9,2.208h-.134a.554.554,0,0,1-.416-.175.561.561,0,0,1-.137-.435l.822-9.1h1.887l-.3,3.314a1.8,1.8,0,0,0,1.818,2h3.672l-.335,3.709Z" transform="translate(-1 -3.078)" fill="#fbfbfb"/>
</svg>
