<svg id="about" xmlns="http://www.w3.org/2000/svg" width="17.389" height="20.287" viewBox="0 0 17.389 20.287">
  <path id="Trazado_15" data-name="Trazado 15" d="M14.072,12.144A5.072,5.072,0,1,0,9,7.072a5.072,5.072,0,0,0,5.072,5.072Zm0-8.695a3.623,3.623,0,1,1-3.623,3.623A3.623,3.623,0,0,1,14.072,3.449Z" transform="translate(-5.377 -2)" fill="#fbfbfb"/>
  <path id="Trazado_16" data-name="Trazado 16" d="M13.419,18H11.97A7.97,7.97,0,0,0,4,25.97a.725.725,0,0,0,.725.725h15.94a.725.725,0,0,0,.725-.725A7.97,7.97,0,0,0,13.419,18ZM5.493,25.245a6.521,6.521,0,0,1,6.477-5.8h1.449a6.521,6.521,0,0,1,6.477,5.8Z" transform="translate(-4 -6.407)" fill="#fbfbfb"/>
</svg>
