<svg xmlns="http://www.w3.org/2000/svg" width="18.637" height="18.637" viewBox="0 0 18.637 18.637">
  <g id="Icons" transform="translate(2 2)">
    <g id="Rounded" transform="translate(-2 -2)">
      <g id="Image">
        <g id="_-Round-_-Image-_-add_to_photos" data-name="-Round-/-Image-/-add_to_photos">
          <g id="Grupo_464" data-name="Grupo 464">
            <path id="Path" d="M0,0H18.637V18.637H0Z" fill="none" fill-rule="evenodd"/>
            <path id="_-Icon-Color" data-name="🔹-Icon-Color" d="M2.777,5.106A.779.779,0,0,0,2,5.883V15.978a1.558,1.558,0,0,0,1.553,1.553H13.648a.777.777,0,0,0,0-1.553H4.33a.779.779,0,0,1-.777-.777V5.883A.779.779,0,0,0,2.777,5.106ZM15.978,2H6.659A1.558,1.558,0,0,0,5.106,3.553v9.318a1.558,1.558,0,0,0,1.553,1.553h9.318a1.558,1.558,0,0,0,1.553-1.553V3.553A1.558,1.558,0,0,0,15.978,2ZM14.424,8.989h-2.33v2.33a.777.777,0,0,1-1.553,0V8.989H8.212a.777.777,0,1,1,0-1.553h2.33V5.106a.777.777,0,1,1,1.553,0v2.33h2.33a.777.777,0,0,1,0,1.553Z" transform="translate(-0.447 -0.447)" fill="#fcfcfc" fill-rule="evenodd"/>
          </g>
        </g>
      </g>
    </g>
  </g>
</svg>
