<svg xmlns="http://www.w3.org/2000/svg" width="18.162" height="18.163" viewBox="0 0 18.162 18.163">
  <path id="apps_menu" d="M6.343,5.333A1.009,1.009,0,0,0,5.334,6.342V8.36A1.009,1.009,0,0,0,6.343,9.369H8.361A1.009,1.009,0,0,0,9.37,8.36V6.342A1.009,1.009,0,0,0,8.361,5.333H6.343Zm7.063,0A1.009,1.009,0,0,0,12.4,6.342V8.36a1.009,1.009,0,0,0,1.009,1.009h2.018A1.009,1.009,0,0,0,16.433,8.36V6.342a1.009,1.009,0,0,0-1.009-1.009H13.406Zm7.063,0A1.009,1.009,0,0,0,19.46,6.342V8.36a1.009,1.009,0,0,0,1.009,1.009h2.018A1.009,1.009,0,0,0,23.5,8.36V6.342a1.009,1.009,0,0,0-1.009-1.009H20.469ZM6.343,12.4a1.009,1.009,0,0,0-1.009,1.009v2.018a1.009,1.009,0,0,0,1.009,1.009H8.361A1.009,1.009,0,0,0,9.37,15.424V13.406A1.009,1.009,0,0,0,8.361,12.4H6.343Zm7.063,0A1.009,1.009,0,0,0,12.4,13.406v2.018a1.009,1.009,0,0,0,1.009,1.009h2.018a1.009,1.009,0,0,0,1.009-1.009V13.406A1.009,1.009,0,0,0,15.424,12.4H13.406Zm7.063,0a1.009,1.009,0,0,0-1.009,1.009v2.018a1.009,1.009,0,0,0,1.009,1.009h2.018A1.009,1.009,0,0,0,23.5,15.424V13.406A1.009,1.009,0,0,0,22.487,12.4H20.469ZM6.343,19.46a1.009,1.009,0,0,0-1.009,1.009v2.018A1.009,1.009,0,0,0,6.343,23.5H8.361A1.009,1.009,0,0,0,9.37,22.487V20.469A1.009,1.009,0,0,0,8.361,19.46Zm7.063,0A1.009,1.009,0,0,0,12.4,20.469v2.018A1.009,1.009,0,0,0,13.406,23.5h2.018a1.009,1.009,0,0,0,1.009-1.009V20.469a1.009,1.009,0,0,0-1.009-1.009H13.406Zm7.063,0a1.009,1.009,0,0,0-1.009,1.009v2.018A1.009,1.009,0,0,0,20.469,23.5h2.018A1.009,1.009,0,0,0,23.5,22.487V20.469a1.009,1.009,0,0,0-1.009-1.009Z" transform="translate(-5.334 -5.333)" fill="#818181"/>
</svg>
