<svg xmlns="http://www.w3.org/2000/svg" width="33.499" height="58.002" viewBox="0 0 33.499 58.002">
  <g id="Layer_8_copy_4_2_" transform="translate(-28.214 -25.665)">
    <path id="Trazado_10" data-name="Trazado 10" d="M61.712,27.574v9.884a2.223,2.223,0,0,1-.629,1.651L45.18,53.015a2.481,2.481,0,0,0,0,3.3l15.9,13.906a2.225,2.225,0,0,1,.629,1.651v9.884c0,1.467-1.049,2.385-1.888,1.651L28.843,56.316a2.481,2.481,0,0,1,0-3.3L59.824,25.922C60.663,25.19,61.712,26.106,61.712,27.574Z" transform="translate(0 0)" fill="#f29e3e"/>
    <path id="Trazado_11" data-name="Trazado 11" d="M68.219,62.247l-.977-.564c-.005.018-.009.037-.013.056l.168.1a.658.658,0,0,1,.329.569v3.409a.654.654,0,0,1-.741.647l.577.333a.657.657,0,0,0,.986-.569V62.816A.658.658,0,0,0,68.219,62.247Z" transform="translate(-6.835 16.783)" fill="#f29e3e"/>
    <path id="Trazado_12" data-name="Trazado 12" d="M48.125,35.1l8.307-4.8a.658.658,0,0,0,.329-.569V26.33a.655.655,0,0,0-.859-.621.65.65,0,0,1,.037.21v3.409a.657.657,0,0,1-.329.569l-8.307,4.8a.739.739,0,0,0-.052,1.193l.787.546a.307.307,0,0,1,.008-.21.236.236,0,0,1,.015-.029A.654.654,0,0,1,48.125,35.1Z" transform="translate(4.952 -0.007)" fill="#f29e3e"/>
    <path id="Trazado_13" data-name="Trazado 13" d="M61.712,27.574v9.884a2.223,2.223,0,0,1-.629,1.651L45.18,53.015a2.481,2.481,0,0,0,0,3.3l15.9,13.906a2.225,2.225,0,0,1,.629,1.651v9.884c0,1.467-1.049,2.385-1.888,1.651L28.843,56.316a2.481,2.481,0,0,1,0-3.3L59.824,25.922C60.663,25.19,61.712,26.106,61.712,27.574Z" transform="translate(0 0)" fill="none"/>
  </g>
</svg>
