<svg id="success_105075" xmlns="http://www.w3.org/2000/svg" width="95.787" height="95.787" viewBox="0 0 95.787 95.787">
  <g id="Grupo_582" data-name="Grupo 582">
    <path id="Trazado_158" data-name="Trazado 158" d="M47.894,0A47.894,47.894,0,1,0,95.787,47.894,47.9,47.9,0,0,0,47.894,0Zm0,89.8A41.907,41.907,0,1,1,89.8,47.894,41.958,41.958,0,0,1,47.894,89.8ZM62.708,30.962,41.545,52.126l-8.466-8.465a5.986,5.986,0,0,0-8.466,8.466l12.7,12.7a5.985,5.985,0,0,0,8.466,0l25.4-25.4a5.986,5.986,0,0,0-8.466-8.466Z" fill="#10b226"/>
  </g>
</svg>
