<svg id="edit_profile" xmlns="http://www.w3.org/2000/svg" width="15.679" height="22.806" viewBox="0 0 15.679 22.806">
  <path id="Trazado_121" data-name="Trazado 121" d="M9.276,4.276A2.138,2.138,0,1,0,7.138,2.138,2.138,2.138,0,0,0,9.276,4.276Zm4.989,5.7a6.358,6.358,0,0,0-.713.042V7.127A1.4,1.4,0,0,0,12.127,5.7h-5.7A1.4,1.4,0,0,0,5,7.127v5.7a1.253,1.253,0,0,0,1.425,1.425v8.552h5.7v-.373A6.412,6.412,0,1,0,14.265,9.978Zm0,11.32a4.906,4.906,0,1,1,4.905-4.905A4.916,4.916,0,0,1,14.265,21.3Z" transform="translate(-5 0)" fill="#fff"/>
  <path id="Trazado_122" data-name="Trazado 122" d="M16.138,24.414H14V22.276Zm4.276-4.276L16.851,23.7l-2.138-2.139L18.276,18Z" transform="translate(-7.586 -5.171)" fill="#fff"/>
</svg>
