<svg xmlns="http://www.w3.org/2000/svg" width="10.311" height="10.311" viewBox="0 0 10.311 10.311">
  <g id="edit-icon" transform="translate(0 -0.004)">
    <path id="Trazado_123" data-name="Trazado 123" d="M9.934,3.116l-.456.456L6.744.838,7.2.382a1.289,1.289,0,0,1,1.823,0l.911.912A1.29,1.29,0,0,1,9.934,3.116ZM3.554,8.583a.322.322,0,0,0,.456.456L9.022,4.027l-.456-.456ZM1.275,6.305a.322.322,0,0,0,.456.456L6.744,1.749l-.456-.456ZM7.2,2.2,2.186,7.217a.644.644,0,1,0,.912.911L8.111,3.116ZM3.1,9.493a.94.94,0,0,1-.256-.551,1.3,1.3,0,0,1-.2.02A1.259,1.259,0,0,1,1.371,7.487a.956.956,0,0,1-.552-.271C.8,7.2.8,7.183.787,7.167L0,10.315l3.14-.786C3.126,9.516,3.11,9.507,3.1,9.493Z" transform="translate(0 0)" fill="#707070"/>
  </g>
</svg>
