<svg xmlns="http://www.w3.org/2000/svg" xmlns:xlink="http://www.w3.org/1999/xlink" width="75" height="76" viewBox="0 0 75 76">
  <defs>
    <filter id="Elipse_2" x="1" y="2" width="74" height="74" filterUnits="userSpaceOnUse">
      <feOffset dy="3" input="SourceAlpha"/>
      <feGaussianBlur stdDeviation="3" result="blur"/>
      <feFlood flood-opacity="0.161"/>
      <feComposite operator="in" in2="blur"/>
      <feComposite in="SourceGraphic"/>
    </filter>
    <filter id="Elipse_3" x="0" y="0" width="32" height="32" filterUnits="userSpaceOnUse">
      <feOffset input="SourceAlpha"/>
      <feGaussianBlur stdDeviation="3" result="blur-2"/>
      <feFlood flood-opacity="0.161"/>
      <feComposite operator="in" in2="blur-2"/>
      <feComposite in="SourceGraphic"/>
    </filter>
  </defs>
  <g id="Grupo_5" data-name="Grupo 5" transform="translate(-276 -616)">
    <g transform="matrix(1, 0, 0, 1, 276, 616)" filter="url(#Elipse_2)">
      <circle id="Elipse_2-2" data-name="Elipse 2" cx="28" cy="28" r="28" transform="translate(10 8)" fill="#8ad449"/>
    </g>
    <g id="_4105931-add-to-cart-buy-cart-sell-shop-shopping-cart_113919" data-name="4105931-add-to-cart-buy-cart-sell-shop-shopping-cart_113919" transform="translate(295.6 640.3)">
      <path id="Trazado_3" data-name="Trazado 3" d="M1.4,1.7H6.6" fill="none" stroke="#fff" stroke-linecap="round" stroke-miterlimit="10" stroke-width="2"/>
      <path id="Trazado_4" data-name="Trazado 4" d="M6.6,1.7,11,18.9" fill="none" stroke="#fff" stroke-linecap="round" stroke-miterlimit="10" stroke-width="2"/>
      <path id="Trazado_5" data-name="Trazado 5" d="M11.8,18.9H28.3" fill="none" stroke="#fff" stroke-linecap="round" stroke-miterlimit="10" stroke-width="2"/>
      <path id="Trazado_6" data-name="Trazado 6" d="M13.8,25.7a3,3,0,1,0-3-3A3,3,0,0,0,13.8,25.7Z" fill="none" stroke="#fff" stroke-linecap="round" stroke-miterlimit="10" stroke-width="2"/>
      <path id="Trazado_7" data-name="Trazado 7" d="M25.3,25.7a3,3,0,1,0-3-3A3,3,0,0,0,25.3,25.7Z" fill="none" stroke="#fff" stroke-linecap="round" stroke-miterlimit="10" stroke-width="2"/>
      <path id="Trazado_8" data-name="Trazado 8" d="M25.7,14.6H11.3a1.3,1.3,0,0,1-1.3-1L8.1,6.9A1.341,1.341,0,0,1,9.4,5.2H27.5a1.33,1.33,0,0,1,1.3,1.7l-1.9,6.7C26.9,14.2,26.4,14.6,25.7,14.6Z" fill="none" stroke="#fff" stroke-linecap="round" stroke-miterlimit="10" stroke-width="2"/>
    </g>
    <g id="Grupo_4" data-name="Grupo 4" transform="translate(-3 -2)">
      <g transform="matrix(1, 0, 0, 1, 279, 618)" filter="url(#Elipse_3)">
        <circle id="Elipse_3-2" data-name="Elipse 3" cx="7" cy="7" r="7" transform="translate(9 9)" fill="#80e0ef"/>
      </g>
      <text id="_3" data-name="3" transform="translate(292 638)" fill="#fff" font-size="11" font-family="SegoeUI, Segoe UI"><tspan x="0" y="0">3</tspan></text>
    </g>
  </g>
</svg>
