<svg id="Icons" xmlns="http://www.w3.org/2000/svg" width="28.029" height="28.029" viewBox="0 0 28.029 28.029">
  <g id="Rounded">
    <g id="Action">
      <g id="_-Round-_-Action-_-add_shopping_cart" data-name="-Round-/-Action-/-add_shopping_cart">
        <g id="Grupo_69" data-name="Grupo 69">
          <path id="Path" d="M0,0H28.029V28.029H0Z" fill="none" fill-rule="evenodd"/>
          <path id="_Icon-Color" data-name="🔹Icon-Color" d="M13.847,10.343a1.171,1.171,0,0,0,1.168-1.168V6.839H17.35a1.168,1.168,0,1,0,0-2.336H15.015V2.168a1.168,1.168,0,1,0-2.336,0V4.5H10.343a1.168,1.168,0,0,0,0,2.336h2.336V9.175A1.171,1.171,0,0,0,13.847,10.343ZM8.007,20.854a2.336,2.336,0,1,0,2.336,2.336A2.333,2.333,0,0,0,8.007,20.854Zm11.679,0a2.336,2.336,0,1,0,2.336,2.336A2.333,2.333,0,0,0,19.686,20.854ZM9.292,15.015h8.7a2.325,2.325,0,0,0,2.044-1.2l3.947-7.159A1.163,1.163,0,1,0,21.952,5.52l-3.959,7.159h-8.2L5.134,2.834a1.159,1.159,0,0,0-1.051-.666H2.168a1.168,1.168,0,0,0,0,2.336H3.336l4.2,8.864-1.577,2.85a2.34,2.34,0,0,0,2.044,3.469H20.854a1.168,1.168,0,1,0,0-2.336H8.007Z" transform="translate(0.168 0.168)" fill="#fff" fill-rule="evenodd"/>
        </g>
      </g>
    </g>
  </g>
</svg>
