<svg xmlns="http://www.w3.org/2000/svg" width="27.82" height="28" viewBox="0 0 27.82 28">
  <path id="location_pin_place_map_address_placeholder_icon_149101" d="M29.41,19.73l-7.46-4.84a10.368,10.368,0,0,0,1.5-5.45A7.425,7.425,0,0,0,8.6,9.41a10.226,10.226,0,0,0,1.47,5.46l-7.48,4.8a1.1,1.1,0,0,0-.5.93,1.071,1.071,0,0,0,.5.93l12.78,8.3a1.09,1.09,0,0,0,1.2,0L29.4,21.59a1.109,1.109,0,0,0,.01-1.86ZM19.36,9.39a3.33,3.33,0,1,1-3.32-3.33A3.342,3.342,0,0,1,19.36,9.39ZM15.98,27.58,5.23,20.59l6.17-3.96.07.07.18.18.21.21c.06.06.12.11.18.17s.14.13.21.19l.18.15.21.18c.06.04.12.09.17.13l.22.16c.05.04.1.07.16.12s.15.1.23.15c.04.03.09.06.13.09.12.07.24.15.35.21.04.03.1.06.14.09.07.04.13.07.19.1a1.093,1.093,0,0,0,.15.08l.15.09a2753645684242.114,2753645684242.114,0,0,1,.28.14c.04.02.09.04.13.06l.12.06a.37.37,0,0,1,.11.05.3.3,0,0,1,.1.04,1.038,1.038,0,0,1,.1.04c.03.01.05.01.07.03a.637.637,0,0,1,.07.02l.06.03c.01,0,.02.01.04.01s.04.01.04.02a1.12,1.12,0,0,0,.35.06,1.088,1.088,0,0,0,.36-.06c.01,0,.02-.01.04-.01s.02-.01.04-.01.04-.01.06-.02a.488.488,0,0,1,.07-.03.363.363,0,0,0,.07-.03.355.355,0,0,0,.09-.04c.03-.01.07-.03.1-.04s.07-.03.1-.04.08-.04.13-.06.08-.04.13-.06a.827.827,0,0,0,.13-.07c.05-.02.1-.05.15-.07s.1-.05.15-.08.1-.05.16-.08.1-.07.16-.1.11-.07.17-.1a2.516,2.516,0,0,1,.24-.15c.1-.06.19-.13.29-.19.06-.04.12-.07.18-.11s.13-.1.2-.15a2.028,2.028,0,0,0,.18-.13c.07-.05.13-.11.21-.16l.18-.15c.07-.05.14-.11.21-.17s.13-.11.18-.16c.07-.06.13-.13.21-.19l.18-.18.2-.2c.01-.02.04-.04.06-.07l6.16,4Z" transform="translate(-2.09 -2.01)" fill="#707070"/>
</svg>
