<svg id="menu" xmlns="http://www.w3.org/2000/svg" width="21.672" height="17.342" viewBox="0 0 21.672 17.342">
  <g id="_x33__1_">
    <g id="Grupo_1" data-name="Grupo 1">
      <path id="Trazado_2" data-name="Trazado 2" d="M2.167,3.468H19.5a1.987,1.987,0,0,0,2.167-1.734A1.987,1.987,0,0,0,19.5,0H2.167A1.987,1.987,0,0,0,0,1.734,1.987,1.987,0,0,0,2.167,3.468ZM19.5,6.937H2.167A1.987,1.987,0,0,0,0,8.671a1.987,1.987,0,0,0,2.167,1.734H19.5a1.987,1.987,0,0,0,2.167-1.734A1.987,1.987,0,0,0,19.5,6.937Zm0,6.937H2.167A1.987,1.987,0,0,0,0,15.608a1.987,1.987,0,0,0,2.167,1.734H19.5a1.987,1.987,0,0,0,2.167-1.734A1.987,1.987,0,0,0,19.5,13.874Z" fill="#f29e3e"/>
    </g>
  </g>
</svg>
