<svg xmlns="http://www.w3.org/2000/svg" width="18.435" height="12.078" viewBox="0 0 18.435 12.078">
  <path id="mbricash_99554" d="M3.5,5a.318.318,0,0,0,0,.636H17.481a.31.31,0,0,1,.318.318v8.264a.318.318,0,0,0,.636,0V5.954A.959.959,0,0,0,17.481,5ZM2.225,6.271a.318.318,0,0,0,0,.636H16.21a.31.31,0,0,1,.318.318v8.264a.318.318,0,0,0,.636,0V7.225a.959.959,0,0,0-.954-.954ZM.954,7.543A.959.959,0,0,0,0,8.5v7.628a.959.959,0,0,0,.954.954H14.938a.959.959,0,0,0,.954-.954V8.5a.959.959,0,0,0-.954-.954Zm0,.636H14.938a.31.31,0,0,1,.318.318v7.628a.31.31,0,0,1-.318.318H.954a.31.31,0,0,1-.318-.318V8.5A.31.31,0,0,1,.954,8.178Zm.636.636a.318.318,0,0,0-.318.318V10.4a.318.318,0,0,0,.636,0V9.45h.954a.318.318,0,0,0,0-.636Zm6.357,0a3.5,3.5,0,1,0,3.5,3.5A3.5,3.5,0,0,0,7.946,8.814Zm5.085,0a.318.318,0,0,0,0,.636h.954V10.4a.318.318,0,0,0,.636,0V9.132a.318.318,0,0,0-.318-.318ZM7.946,9.45A2.861,2.861,0,1,1,5.085,12.31,2.857,2.857,0,0,1,7.946,9.45Zm0,.636a.317.317,0,0,0-.318.318v.378a.95.95,0,0,0,.318,1.847.318.318,0,1,1,0,.636H7.31a.318.318,0,0,0,0,.636h.318v.318a.318.318,0,0,0,.636,0V13.84a.95.95,0,0,0-.318-1.847.318.318,0,0,1,0-.636h.636a.318.318,0,1,0,0-.636H8.264V10.4A.317.317,0,0,0,7.946,10.085ZM1.589,13.9a.3.3,0,0,0-.318.317v1.271a.318.318,0,0,0,.318.318H2.861a.318.318,0,0,0,0-.636H1.907v-.954A.307.307,0,0,0,1.589,13.9Zm12.714,0a.307.307,0,0,0-.318.317v.954h-.954a.318.318,0,0,0,0,.636H14.3a.318.318,0,0,0,.318-.318V14.217A.3.3,0,0,0,14.3,13.9Z" transform="translate(0 -5)" fill="#bebebe"/>
</svg>
