<svg xmlns="http://www.w3.org/2000/svg" width="29.485" height="26.217" viewBox="0 0 29.485 26.217">
  <g id="_4105931-add-to-cart-buy-cart-sell-shop-shopping-cart_113919" data-name="4105931-add-to-cart-buy-cart-sell-shop-shopping-cart_113919" transform="translate(-0.4 -0.483)">
    <path id="Trazado_3" data-name="Trazado 3" d="M1.4,1.7H6.6" fill="none" stroke="#fff" stroke-linecap="round" stroke-miterlimit="10" stroke-width="2"/>
    <path id="Trazado_4" data-name="Trazado 4" d="M6.6,1.7,11,18.9" fill="none" stroke="#fff" stroke-linecap="round" stroke-miterlimit="10" stroke-width="2"/>
    <path id="Trazado_5" data-name="Trazado 5" d="M11.8,18.9H28.3" fill="none" stroke="#fff" stroke-linecap="round" stroke-miterlimit="10" stroke-width="2"/>
    <path id="Trazado_6" data-name="Trazado 6" d="M13.8,25.7a3,3,0,1,0-3-3A3,3,0,0,0,13.8,25.7Z" fill="none" stroke="#fff" stroke-linecap="round" stroke-miterlimit="10" stroke-width="2"/>
    <path id="Trazado_7" data-name="Trazado 7" d="M25.3,25.7a3,3,0,1,0-3-3A3,3,0,0,0,25.3,25.7Z" fill="none" stroke="#fff" stroke-linecap="round" stroke-miterlimit="10" stroke-width="2"/>
    <path id="Trazado_8" data-name="Trazado 8" d="M25.7,14.6H11.3a1.3,1.3,0,0,1-1.3-1L8.1,6.9A1.341,1.341,0,0,1,9.4,5.2H27.5a1.33,1.33,0,0,1,1.3,1.7l-1.9,6.7C26.9,14.2,26.4,14.6,25.7,14.6Z" fill="none" stroke="#fff" stroke-linecap="round" stroke-miterlimit="10" stroke-width="2"/>
  </g>
</svg>
