<svg xmlns="http://www.w3.org/2000/svg" width="13.957" height="13.957" viewBox="0 0 13.957 13.957">
  <g id="size" transform="translate(-0.001)">
    <g id="Grupo_18" data-name="Grupo 18" transform="translate(0.001)">
      <path id="Trazado_27" data-name="Trazado 27" d="M5.735,223.065a.286.286,0,0,0-.418,0L2.3,226.082.992,224.773a.559.559,0,0,0-.409-.173.56.56,0,0,0-.409.173.559.559,0,0,0-.173.409v4.071a.559.559,0,0,0,.173.409.56.56,0,0,0,.409.173H4.653a.578.578,0,0,0,.409-.991l-1.308-1.308,3.017-3.017a.286.286,0,0,0,0-.418Z" transform="translate(-0.001 -215.878)" fill="#3a3a3a"/>
      <path id="Trazado_28" data-name="Trazado 28" d="M229.663.173A.559.559,0,0,0,229.254,0h-4.071a.559.559,0,0,0-.409.173.559.559,0,0,0-.173.409.559.559,0,0,0,.173.409L226.082,2.3l-3.017,3.017a.286.286,0,0,0,0,.418L224.1,6.769a.286.286,0,0,0,.418,0l3.017-3.017,1.308,1.308a.582.582,0,0,0,.991-.409V.581A.557.557,0,0,0,229.663.173Z" transform="translate(-215.878)" fill="#3a3a3a"/>
    </g>
  </g>
</svg>
