<svg xmlns="http://www.w3.org/2000/svg" xmlns:xlink="http://www.w3.org/1999/xlink" width="84" height="84" viewBox="0 0 84 84">
  <defs>
    <linearGradient id="linear-gradient" x1="0.5" y1="0.063" x2="0.5" y2="1.013" gradientUnits="objectBoundingBox">
      <stop offset="0" stop-color="#1df47c"/>
      <stop offset="0.31" stop-color="#12df63"/>
      <stop offset="0.75" stop-color="#05c443"/>
      <stop offset="1" stop-color="#00ba37"/>
    </linearGradient>
  </defs>
  <g id="Grupo_471" data-name="Grupo 471" transform="translate(-334 -6350)">
    <g id="_23-whatsapp" data-name="23-whatsapp" transform="translate(333.979 6349.979)">
      <rect id="Rectángulo_297" data-name="Rectángulo 297" width="84" height="84" rx="42" transform="translate(0.021 0.021)" fill="url(#linear-gradient)"/>
      <path id="Trazado_130" data-name="Trazado 130" d="M27.193,21.36l1.923,5.221a.731.731,0,0,1-.1.712A9.923,9.923,0,0,1,27.6,28.937a.769.769,0,0,0-.154,1.048c1.183,1.587,4.25,5.433,8.241,6.808a.76.76,0,0,0,.856-.279l1.6-2.125a.769.769,0,0,1,.962-.221l5,2.5a.76.76,0,0,1,.385.962c-.548,1.558-2.269,5.356-5.952,4.741a19.991,19.991,0,0,1-12.318-6.952c-3.019-3.769-8.981-13.462.183-14.558A.769.769,0,0,1,27.193,21.36Z" transform="translate(9.614 10.45)" fill="#fff"/>
      <path id="Trazado_131" data-name="Trazado 131" d="M32.68,53.047A23.279,23.279,0,0,1,21.2,50.038L9.66,53,13.9,43.47A21.155,21.155,0,0,1,9.987,31.124C9.987,19.037,20.17,9.2,32.68,9.2s22.693,9.837,22.693,21.924S45.19,53.047,32.68,53.047ZM21.8,45.9l.7.433A19.356,19.356,0,0,0,32.68,49.22c10.395,0,18.847-8.106,18.847-18.077s-8.452-18.1-18.847-18.1S13.833,21.152,13.833,31.124a17.433,17.433,0,0,0,3.846,10.9l.721.913-3.471,5.885Z" transform="translate(10.069 10.898)" fill="#fff"/>
    </g>
  </g>
</svg>
