<svg xmlns="http://www.w3.org/2000/svg" width="18.005" height="19.72" viewBox="0 0 18.005 19.72">
  <g id="Grupo_411" data-name="Grupo 411" transform="translate(0 -1.14)">
    <g id="logout" transform="translate(0 1.14)">
      <line id="Línea_5" data-name="Línea 5" x2="10" transform="translate(6.591 9.638)" fill="none" stroke="#fefefe" stroke-linecap="round" stroke-linejoin="round" stroke-width="2"/>
      <path id="Trazado_26" data-name="Trazado 26" d="M18.607,18.2v2.113H7.339V3.409H18.607V5.521h1.409V2.7a.7.7,0,0,0-.7-.7H6.634a.7.7,0,0,0-.7.7V21.016a.7.7,0,0,0,.7.7H19.312a.7.7,0,0,0,.7-.7V18.2Z" transform="translate(-5.93 -2)" fill="#fefefe"/>
      <line id="Línea_6" data-name="Línea 6" x1="3" y2="3" transform="translate(13.591 9.638)" fill="none" stroke="#fefefe" stroke-linecap="round" stroke-linejoin="round" stroke-width="2"/>
      <line id="Línea_7" data-name="Línea 7" x1="3" y1="3" transform="translate(13.591 6.638)" fill="none" stroke="#fefefe" stroke-linecap="round" stroke-linejoin="round" stroke-width="2"/>
      <line id="Línea_8" data-name="Línea 8" y1="1.409" transform="translate(13.375 2.881)" fill="none" stroke="#fefefe" stroke-linecap="round" stroke-linejoin="round" stroke-width="2"/>
      <line id="Línea_9" data-name="Línea 9" y1="1" transform="translate(13.591 15.638)" fill="none" stroke="#fefefe" stroke-linecap="round" stroke-linejoin="round" stroke-width="2"/>
    </g>
  </g>
</svg>
