<svg xmlns="http://www.w3.org/2000/svg" width="18.498" height="18.495" viewBox="0 0 18.498 18.495">
  <g id="Grupo_409" data-name="Grupo 409" transform="translate(0 -3.505)">
    <g id="phone-call-auricular-symbol-in-black_icon-icons.com_56483" transform="translate(0 3.505)">
      <path id="Trazado_25" data-name="Trazado 25" d="M18.415,14.785l-.092-.277a2.6,2.6,0,0,0-1.589-1.5l-2.43-.664a2.381,2.381,0,0,0-2.081.544l-.88.88A9.33,9.33,0,0,1,4.776,7.2l.88-.88A2.379,2.379,0,0,0,6.2,4.239L5.537,1.808A2.6,2.6,0,0,0,4.034.219L3.756.126A2.206,2.206,0,0,0,1.7.611L.386,1.928a2.454,2.454,0,0,0-.385.9,15.528,15.528,0,0,0,15.669,15.7,2.444,2.444,0,0,0,.945-.382L17.93,16.84A2.205,2.205,0,0,0,18.415,14.785Z" transform="translate(0 -0.043)" fill="#fff"/>
    </g>
  </g>
</svg>
