<svg xmlns="http://www.w3.org/2000/svg" width="18.24" height="21.28" viewBox="0 0 18.24 21.28">
  <g id="Grupo_410" data-name="Grupo 410" transform="translate(0 -0.76)">
    <g id="about" transform="translate(0 0.76)">
      <path id="Trazado_15" data-name="Trazado 15" d="M14.32,12.64A5.32,5.32,0,1,0,9,7.32a5.32,5.32,0,0,0,5.32,5.32Zm0-9.12a3.8,3.8,0,1,1-3.8,3.8A3.8,3.8,0,0,1,14.32,3.52Z" transform="translate(-5.2 -2)" fill="#fefefe"/>
      <path id="Trazado_16" data-name="Trazado 16" d="M13.88,18H12.36A8.36,8.36,0,0,0,4,26.36a.76.76,0,0,0,.76.76H21.48a.76.76,0,0,0,.76-.76A8.36,8.36,0,0,0,13.88,18ZM5.566,25.6a6.84,6.84,0,0,1,6.794-6.08h1.52a6.84,6.84,0,0,1,6.794,6.08Z" transform="translate(-4 -5.84)" fill="#fefefe"/>
    </g>
  </g>
</svg>
