<svg xmlns="http://www.w3.org/2000/svg" width="22.35" height="19.753" viewBox="0 0 22.35 19.753">
  <g id="Grupo_407" data-name="Grupo 407" transform="translate(0.5 -1.744)">
    <g id="shopping-cart" transform="translate(0 2.352)">
      <path id="Trazado_17" data-name="Trazado 17" d="M1.4,1.7H5.44" transform="translate(-1.4 -1.7)" fill="none" stroke="#fefefe" stroke-linecap="round" stroke-miterlimit="10" stroke-width="1"/>
      <path id="Trazado_18" data-name="Trazado 18" d="M6.6,1.7l3.418,13.362" transform="translate(-2.56 -1.7)" fill="none" stroke="#fefefe" stroke-linecap="round" stroke-miterlimit="10" stroke-width="1"/>
      <path id="Trazado_19" data-name="Trazado 19" d="M11.8,18.9H24.618" transform="translate(-3.721 -5.538)" fill="none" stroke="#fefefe" stroke-linecap="round" stroke-miterlimit="10" stroke-width="1"/>
      <path id="Trazado_20" data-name="Trazado 20" d="M13.131,24.361A2.331,2.331,0,1,0,10.8,22.031,2.33,2.33,0,0,0,13.131,24.361Z" transform="translate(-3.498 -5.717)" fill="none" stroke="#fefefe" stroke-linecap="round" stroke-miterlimit="10" stroke-width="1"/>
      <path id="Trazado_21" data-name="Trazado 21" d="M24.631,24.361A2.331,2.331,0,1,0,22.3,22.031,2.331,2.331,0,0,0,24.631,24.361Z" transform="translate(-6.064 -5.717)" fill="none" stroke="#fefefe" stroke-linecap="round" stroke-miterlimit="10" stroke-width="1"/>
      <path id="Trazado_22" data-name="Trazado 22" d="M21.764,12.5H10.577a1.006,1.006,0,0,1-1.01-.777l-1.476-5.2A1.042,1.042,0,0,1,9.1,5.2H23.162a1.033,1.033,0,0,1,1.01,1.321l-1.476,5.2C22.7,12.192,22.308,12.5,21.764,12.5Z" transform="translate(-2.887 -2.481)" fill="none" stroke="#fefefe" stroke-linecap="round" stroke-miterlimit="10" stroke-width="1"/>
    </g>
  </g>
</svg>
