<svg xmlns="http://www.w3.org/2000/svg" width="21.002" height="16.713" viewBox="0 0 21.002 16.713">
  <g id="Grupo_408" data-name="Grupo 408" transform="translate(0 -2.843)">
    <g id="home_icon-icons.com_73532" transform="translate(0 2.843)">
      <g id="Grupo_12" data-name="Grupo 12" transform="translate(0 0)">
        <path id="Trazado_23" data-name="Trazado 23" d="M73.2,120.939l-7.49,6.175a.177.177,0,0,1-.007.039.178.178,0,0,0-.007.039v6.253a.846.846,0,0,0,.834.834h5v-5h3.335v5h5a.847.847,0,0,0,.834-.834v-6.253a.184.184,0,0,0-.013-.078Z" transform="translate(-62.7 -117.565)" fill="#fefefe"/>
        <path id="Trazado_24" data-name="Trazado 24" d="M20.856,55.136,18,52.765V47.45a.4.4,0,0,0-.417-.417h-2.5a.4.4,0,0,0-.417.417v2.54L11.49,47.333a1.616,1.616,0,0,0-1.98,0l-9.366,7.8a.378.378,0,0,0-.143.28.422.422,0,0,0,.091.306l.808.964a.444.444,0,0,0,.274.143.484.484,0,0,0,.313-.091L10.5,49.222l9.014,7.517a.4.4,0,0,0,.274.091h.039a.445.445,0,0,0,.274-.143l.808-.964A.422.422,0,0,0,21,55.416.38.38,0,0,0,20.856,55.136Z" transform="translate(0.001 -46.994)" fill="#fefefe"/>
      </g>
    </g>
  </g>
</svg>
