<svg xmlns="http://www.w3.org/2000/svg" width="17.498" height="20.004" viewBox="0 0 17.498 20.004">
  <g id="Layer_8_copy_4_2_" transform="translate(-28.214 -25.665)">
    <path id="Trazado_10" data-name="Trazado 10" d="M45.712,26.323v3.409a.657.657,0,0,1-.329.569l-8.307,4.8a.658.658,0,0,0,0,1.139l8.307,4.8a.658.658,0,0,1,.329.569V45.01a.657.657,0,0,1-.986.569L28.542,36.236a.658.658,0,0,1,0-1.139l16.183-9.343A.657.657,0,0,1,45.712,26.323Z" fill="#f29e3e"/>
    <path id="Trazado_11" data-name="Trazado 11" d="M68.219,62.247l-.977-.564c-.005.018-.009.037-.013.056l.168.1a.658.658,0,0,1,.329.569v3.409a.654.654,0,0,1-.741.647l.577.333a.657.657,0,0,0,.986-.569V62.816A.658.658,0,0,0,68.219,62.247Z" transform="translate(-22.836 -21.215)" fill="#f29e3e"/>
    <path id="Trazado_12" data-name="Trazado 12" d="M48.125,35.1l8.307-4.8a.658.658,0,0,0,.329-.569V26.33a.655.655,0,0,0-.859-.621.65.65,0,0,1,.037.21v3.409a.657.657,0,0,1-.329.569l-8.307,4.8a.739.739,0,0,0-.052,1.193l.787.546a.307.307,0,0,1,.008-.21.236.236,0,0,1,.015-.029A.654.654,0,0,1,48.125,35.1Z" transform="translate(-11.049 -0.007)" fill="#f29e3e"/>
    <path id="Trazado_13" data-name="Trazado 13" d="M45.712,26.323v3.409a.657.657,0,0,1-.329.569l-8.307,4.8a.658.658,0,0,0,0,1.139l8.307,4.8a.658.658,0,0,1,.329.569V45.01a.657.657,0,0,1-.986.569L28.542,36.236a.658.658,0,0,1,0-1.139l16.183-9.343A.657.657,0,0,1,45.712,26.323Z" fill="none"/>
  </g>
</svg>
