<svg xmlns="http://www.w3.org/2000/svg" width="15.064" height="13.558" viewBox="0 0 15.064 13.558">
  <path id="weight_icon_135019" d="M9.532,3a3.013,3.013,0,0,1,3.013,3.013,2.93,2.93,0,0,1-.407,1.506h1.913A1.51,1.51,0,0,1,15.52,8.694c1.514,6.033,1.544,6.191,1.544,6.357a1.506,1.506,0,0,1-1.506,1.506H3.506A1.506,1.506,0,0,1,2,15.051c0-.166.03-.324,1.544-6.357A1.51,1.51,0,0,1,5.013,7.519H6.926a2.93,2.93,0,0,1-.407-1.506A3.013,3.013,0,0,1,9.532,3m0,1.506a1.506,1.506,0,1,0,1.506,1.506A1.506,1.506,0,0,0,9.532,4.506Z" transform="translate(-2 -3)" fill="#3a3a3a"/>
</svg>
